<?xml version="1.0" encoding="UTF-8"?>
<!DOCTYPE svg PUBLIC "-//W3C//DTD SVG 1.1//EN" "http://www.w3.org/Graphics/SVG/1.1/DTD/svg11.dtd">
<!-- Creator: CorelDRAW -->
<svg xmlns="http://www.w3.org/2000/svg" xml:space="preserve" width="12.617mm" height="12.617mm" version="1.1" style="shape-rendering:geometricPrecision; text-rendering:geometricPrecision; image-rendering:optimizeQuality; fill-rule:evenodd; clip-rule:evenodd"
viewBox="0 0 1261.7 1261.7"
 xmlns:xlink="http://www.w3.org/1999/xlink"
 xmlns:xodm="http://www.corel.com/coreldraw/odm/2003">
 <defs>
  <style type="text/css">
   <![CDATA[
    .fil0 {fill:#FEFEFE}
   ]]>
  </style>
 </defs>
 <g id="Camada_x0020_1">
  <metadata id="CorelCorpID_0Corel-Layer"/>
  <path class="fil0" d="M626.7 4.17c348.4,0 630.83,282.43 630.83,630.83 0,348.4 -282.43,630.83 -630.83,630.83 -348.4,0 -630.83,-282.43 -630.83,-630.83 0,-348.4 282.43,-630.83 630.83,-630.83zm120.87 623.42c21.73,-9.54 22.42,-10.04 35.56,-19.38 41.26,-25.5 75.86,-77.16 88.66,-125.48 17.6,-66.4 2.98,-125.19 -26.21,-174.01 -50.02,-83.68 -175.12,-141.88 -296.78,-75.75 -23.54,12.8 -44.29,31.43 -58.29,48.12 -124.71,148.59 -18.58,368.83 170.64,366.12 20.21,-0.29 74.91,-9.27 86.42,-19.62zm-475.95 96.38c-32.35,9.49 -26.46,43.71 -26.46,78.95 0,35.47 0,70.94 0,106.41 0,34.17 -6.91,75.67 16.77,89.99 13.96,8.44 29.17,5.96 46.71,5.96 12.6,0 40.91,1.42 51.27,-1.42 31.98,-8.78 26.74,-42.91 26.74,-77.91l0 -159.64c-0.24,-47.79 -33.39,-43.83 -63.04,-43.83 -13.15,0 -41.19,-1.68 -51.99,1.49zm602.78 60.75c20.43,77.51 -64.96,72.43 -124.58,67.15 -43.79,-3.88 -99.49,-9.68 -142.81,1.64 -11.39,2.98 -30.52,13.78 -37.64,11.53 -31.98,-20.11 54.6,-35.42 68.51,-36.68 80.21,-7.3 194.01,24.76 216.5,-10.05 11.31,-17.49 -2.09,-34.29 -12.86,-41.21 -29.27,-18.81 -109.26,-22.32 -148.66,-28.96 -71.78,-12.08 -116.62,-39.93 -205.6,-16.03 -24.51,6.59 -66.99,26.19 -80.33,38.96 -1.88,18.85 -2.02,173.19 1.34,181.51 6.26,2.03 51.94,-7.55 66.58,-8.33 85.83,-4.56 145.04,27.86 209.52,30.64 38.32,1.64 84.25,-28.29 115.02,-43.61 35.24,-17.56 69.51,-38.68 101.21,-58.46 47.68,-29.75 150.59,-103.07 167.56,-149.97 10.96,-30.29 -20.45,-31.82 -42.27,-25.69 -45.61,12.82 -116.33,61.43 -151.49,87.56zm-228.41 -444.46c-18.99,8.54 -25.3,7.82 -34.56,23.49 -9.53,16.15 -6.47,32.78 3.79,45.63 19.12,23.96 64.08,24.92 74.64,43.47 9.24,16.23 -7.49,28.13 -22.18,30.5 -18.3,2.95 -35.94,-5.22 -46.53,-13.38 -18.72,-14.41 -32.42,8.22 -16.38,19.7 10.81,7.73 25.35,15.79 41.85,18.41 -0.12,15.7 -4.95,41.23 12.8,41.22 17.75,0 12.61,-25.57 12.73,-41.26 46.89,-7.25 69.42,-63.32 10.84,-91.6 -14.24,-6.88 -28.53,-8.87 -41.32,-16.87 -32.97,-20.64 17.21,-52.51 47.53,-22.57 17.13,16.92 32.56,-3.01 20.93,-15.9 -11.38,-12.61 -19.9,-13.02 -37.35,-20.84 -2.54,-15.48 5.1,-37.91 -13.36,-37.9 -18.23,0.01 -11.15,23.79 -13.43,37.9z"/>
 </g>
</svg>
