<?xml version="1.0" encoding="UTF-8"?>
<!DOCTYPE svg PUBLIC "-//W3C//DTD SVG 1.1//EN" "http://www.w3.org/Graphics/SVG/1.1/DTD/svg11.dtd">
<!-- Creator: CorelDRAW -->
<svg xmlns="http://www.w3.org/2000/svg" xml:space="preserve" width="19mm" height="15mm" version="1.1" style="shape-rendering:geometricPrecision; text-rendering:geometricPrecision; image-rendering:optimizeQuality; fill-rule:evenodd; clip-rule:evenodd"
viewBox="0 0 1900 1500"
 xmlns:xlink="http://www.w3.org/1999/xlink"
 xmlns:xodm="http://www.corel.com/coreldraw/odm/2003">
 <defs>
  <style type="text/css">
   <![CDATA[
    .str1 {stroke:#373435;stroke-width:20;stroke-miterlimit:22.9256}
    .str2 {stroke:#373435;stroke-width:25.44;stroke-linecap:round;stroke-linejoin:round;stroke-miterlimit:22.9256}
    .str0 {stroke:#373435;stroke-width:25.44;stroke-linecap:round;stroke-linejoin:round;stroke-miterlimit:22.9256}
    .fil1 {fill:none}
    .fil5 {fill:#FEFEFE}
    .fil8 {fill:#373435}
    .fil26 {fill:#092B2A}
    .fil25 {fill:#0C1524}
    .fil27 {fill:#0C4853}
    .fil28 {fill:#1E7572}
    .fil24 {fill:#BF3C49}
    .fil29 {fill:#CC535E}
    .fil23 {fill:#F3E3B2}
    .fil14 {fill:url(#id2)}
    .fil13 {fill:url(#id3)}
    .fil3 {fill:url(#id4)}
    .fil6 {fill:url(#id5)}
    .fil16 {fill:url(#id6)}
    .fil21 {fill:url(#id7)}
    .fil4 {fill:url(#id8)}
    .fil19 {fill:url(#id9)}
    .fil2 {fill:url(#id10)}
    .fil15 {fill:url(#id11)}
    .fil7 {fill:url(#id12)}
    .fil11 {fill:url(#id13)}
    .fil0 {fill:url(#id14)}
    .fil20 {fill:url(#id15)}
    .fil22 {fill:url(#id16)}
    .fil9 {fill:url(#id17)}
    .fil10 {fill:url(#id18)}
    .fil18 {fill:url(#id19)}
    .fil12 {fill:url(#id20)}
    .fil17 {fill:url(#id21)}
   ]]>
  </style>
     <clipPath id="id0">
      <path d="M1562.89 63.58c-10.34,-0.67 -24.93,-0.2 -37.7,3.98 -12.76,4.18 -23.71,12.06 -32.41,21.89 -8.7,9.82 -15.14,21.58 -18.78,32.13 -3.65,10.55 -4.49,19.89 -4.91,24.56 -0.43,4.66 -0.43,4.66 -3.89,1.83 -3.47,-2.83 -10.41,-8.48 -19.03,-12.34 -8.63,-3.85 -18.94,-5.91 -28.31,-4.97 -9.37,0.93 -17.81,4.86 -23.94,9.92 -6.13,5.07 -9.95,11.28 -12.31,17.63 -2.36,6.35 -3.26,12.84 -2.92,20.22 0.33,7.37 1.9,15.63 2.69,19.76 0.79,4.13 0.79,4.13 -0.95,4.99 -1.74,0.86 -5.23,2.57 -6.97,3.43 -1.74,0.85 -1.74,0.85 -1.74,0.85 0,0 0,0 -2.63,-4.28 -2.63,-4.29 -7.9,-12.86 -14.92,-19.38 -7.01,-6.52 -15.77,-10.99 -23.16,-12.75 -7.39,-1.75 -13.42,-0.79 -19.72,2.82 -6.3,3.6 -12.89,9.84 -17.48,15.62 -4.59,5.79 -7.2,11.13 -11.71,14.48 -4.5,3.34 -10.9,4.71 -14.1,5.39 -3.2,0.68 -3.2,0.68 -3.6,3.12 -0.4,2.44 -1.2,7.33 -0.24,11.4 0.96,4.06 3.69,7.3 11.52,8.88 7.84,1.59 20.78,1.52 45.13,1.38 24.33,-0.14 60.07,-0.34 90.05,-0.34 29.98,0 54.21,0.21 78.66,0.24 24.45,0.04 49.12,-0.09 65.33,-0.75 16.21,-0.66 23.97,-1.86 32.92,-5.5 8.95,-3.65 19.08,-9.75 27.26,-17.16 8.17,-7.41 14.38,-16.13 18.38,-27.66 3.99,-11.53 5.76,-25.86 4.85,-38.89 -0.92,-13.02 -4.54,-24.75 -9.09,-34.24 -4.56,-9.49 -10.06,-16.75 -15.75,-22.55 -5.69,-5.79 -11.57,-10.11 -16.26,-13.1 -4.7,-2.99 -8.22,-4.65 -13.03,-6.39 -4.81,-1.74 -10.9,-3.55 -21.24,-4.22z"/>
     </clipPath>
     <clipPath id="id1">
      <path d="M615.24 33.97c-12.24,-0.79 -29.51,-0.23 -44.62,4.71 -15.12,4.95 -28.08,14.29 -38.38,25.92 -10.3,11.64 -17.93,25.56 -22.24,38.05 -4.32,12.49 -5.31,23.54 -5.81,29.07 -0.5,5.52 -0.5,5.52 -4.61,2.17 -4.11,-3.35 -12.32,-10.04 -22.53,-14.61 -10.21,-4.56 -22.41,-7 -33.51,-5.89 -11.1,1.11 -21.09,5.75 -28.34,11.75 -7.26,6 -11.79,13.36 -14.58,20.87 -2.79,7.52 -3.86,15.21 -3.46,23.94 0.4,8.73 2.26,18.51 3.19,23.4 0.93,4.89 0.93,4.89 -1.13,5.9 -2.06,1.02 -6.18,3.05 -8.24,4.06 -2.06,1.02 -2.06,1.02 -2.06,1.02 0,0 0,0 -3.12,-5.08 -3.12,-5.07 -9.36,-15.22 -17.66,-22.94 -8.31,-7.72 -18.68,-13.02 -27.42,-15.09 -8.76,-2.08 -15.89,-0.94 -23.36,3.33 -7.46,4.26 -15.25,11.65 -20.69,18.5 -5.44,6.85 -8.53,13.17 -13.86,17.14 -5.33,3.96 -12.91,5.57 -16.7,6.38 -3.78,0.8 -3.78,0.8 -4.26,3.7 -0.47,2.89 -1.42,8.68 -0.28,13.49 1.13,4.81 4.36,8.65 13.64,10.52 9.28,1.87 24.6,1.79 53.42,1.63 28.82,-0.16 71.12,-0.4 106.62,-0.4 35.49,0 64.18,0.24 93.13,0.29 28.95,0.04 58.15,-0.11 77.35,-0.89 19.19,-0.79 28.38,-2.2 38.97,-6.52 10.59,-4.32 22.6,-11.55 32.27,-20.32 9.68,-8.77 17.03,-19.1 21.76,-32.74 4.73,-13.65 6.83,-30.62 5.74,-46.04 -1.08,-15.43 -5.37,-29.3 -10.76,-40.54 -5.4,-11.24 -11.91,-19.84 -18.64,-26.7 -6.74,-6.85 -13.69,-11.97 -19.25,-15.51 -5.57,-3.55 -9.74,-5.51 -15.43,-7.57 -5.69,-2.06 -12.91,-4.2 -25.15,-5z"/>
     </clipPath>
  <linearGradient id="id2" gradientUnits="userSpaceOnUse" x1="593.36" y1="201.44" x2="769.19" y2="550.17">
   <stop offset="0" style="stop-opacity:1; stop-color:#FF7575"/>
   <stop offset="1" style="stop-opacity:1; stop-color:#9E2331"/>
  </linearGradient>
  <linearGradient id="id3" gradientUnits="userSpaceOnUse" x1="1222.9" y1="64.02" x2="1057.09" y2="523.85">
   <stop offset="0" style="stop-opacity:1; stop-color:#FCB0B0"/>
   <stop offset="1" style="stop-opacity:1; stop-color:#9E2331"/>
  </linearGradient>
  <linearGradient id="id4" gradientUnits="userSpaceOnUse" x1="1771.35" y1="888.46" x2="1637.59" y2="1029.6">
   <stop offset="0" style="stop-opacity:1; stop-color:#EE9598"/>
   <stop offset="1" style="stop-opacity:1; stop-color:#D33649"/>
  </linearGradient>
  <linearGradient id="id5" gradientUnits="userSpaceOnUse" x1="1823.01" y1="264.7" x2="1300.66" y2="658.33">
   <stop offset="0" style="stop-opacity:1; stop-color:#105A59"/>
   <stop offset="0.568627" style="stop-opacity:1; stop-color:#43877C"/>
   <stop offset="1" style="stop-opacity:1; stop-color:#76B5A0"/>
  </linearGradient>
  <linearGradient id="id6" gradientUnits="userSpaceOnUse" x1="122.8" y1="280.73" x2="655.34" y2="660.44">
   <stop offset="0" style="stop-opacity:1; stop-color:#EC9194"/>
   <stop offset="0.568627" style="stop-opacity:1; stop-color:#C85C64"/>
   <stop offset="1" style="stop-opacity:1; stop-color:#A32734"/>
  </linearGradient>
  <linearGradient id="id7" gradientUnits="userSpaceOnUse" x1="369.91" y1="679.56" x2="427.08" y2="830.32">
   <stop offset="0" style="stop-opacity:1; stop-color:#76B5A0"/>
   <stop offset="1" style="stop-opacity:1; stop-color:#065B5C"/>
  </linearGradient>
  <linearGradient id="id8" gradientUnits="userSpaceOnUse" x1="1567.75" y1="63.47" x2="1372.13" y2="247.12">
   <stop offset="0" style="stop-opacity:1; stop-color:#9FE0CA"/>
   <stop offset="1" style="stop-opacity:1; stop-color:#0F7D7E"/>
  </linearGradient>
  <linearGradient id="id9" gradientUnits="userSpaceOnUse" x1="515.78" y1="778.41" x2="499.19" y2="1165.78">
   <stop offset="0" style="stop-opacity:1; stop-color:#EE9598"/>
   <stop offset="1" style="stop-opacity:1; stop-color:#B52838"/>
  </linearGradient>
  <linearGradient id="id10" gradientUnits="userSpaceOnUse" x1="1302.12" y1="788.07" x2="1566.68" y2="1144.94">
   <stop offset="0" style="stop-opacity:1; stop-color:#A42835"/>
   <stop offset="1" style="stop-opacity:1; stop-color:#E98D91"/>
  </linearGradient>
  <linearGradient id="id11" gradientUnits="userSpaceOnUse" x1="442.27" y1="338.69" x2="703.2" y2="623.91">
   <stop offset="0" style="stop-opacity:1; stop-color:#76B5A0"/>
   <stop offset="1" style="stop-opacity:1; stop-color:#065152"/>
  </linearGradient>
  <linearGradient id="id12" gradientUnits="userSpaceOnUse" x1="1374.56" y1="292.26" x2="1296.72" y2="630.59">
   <stop offset="0" style="stop-opacity:1; stop-color:#FCB0B0"/>
   <stop offset="1" style="stop-opacity:1; stop-color:#B02132"/>
  </linearGradient>
  <linearGradient id="id13" gradientUnits="userSpaceOnUse" xlink:href="#id2" x1="758.76" y1="58.37" x2="879.46" y2="508.83">
  </linearGradient>
  <linearGradient id="id14" gradientUnits="userSpaceOnUse" x1="896.39" y1="1022.59" x2="901.06" y2="1366.13">
   <stop offset="0" style="stop-opacity:1; stop-color:#76B5A0"/>
   <stop offset="0.380392" style="stop-opacity:1; stop-color:#3E8D83"/>
   <stop offset="1" style="stop-opacity:1; stop-color:#066466"/>
  </linearGradient>
  <linearGradient id="id15" gradientUnits="userSpaceOnUse" x1="266.77" y1="613.14" x2="492" y2="894.92">
   <stop offset="0" style="stop-opacity:1; stop-color:#FCB0B0"/>
   <stop offset="1" style="stop-opacity:1; stop-color:#AD1A2B"/>
  </linearGradient>
  <linearGradient id="id16" gradientUnits="userSpaceOnUse" xlink:href="#id8" x1="620.99" y1="33.84" x2="389.4" y2="251.28">
  </linearGradient>
  <linearGradient id="id17" gradientUnits="userSpaceOnUse" x1="1575.66" y1="599.77" x2="1596.47" y2="953.8">
   <stop offset="0" style="stop-opacity:1; stop-color:#74B39E"/>
   <stop offset="1" style="stop-opacity:1; stop-color:#125C5A"/>
  </linearGradient>
  <linearGradient id="id18" gradientUnits="userSpaceOnUse" x1="1633.04" y1="677.78" x2="1423.23" y2="826.58">
   <stop offset="0" style="stop-opacity:1; stop-color:#EE9598"/>
   <stop offset="1" style="stop-opacity:1; stop-color:#AD1A2B"/>
  </linearGradient>
  <linearGradient id="id19" gradientUnits="userSpaceOnUse" x1="922.65" y1="482.68" x2="1069.99" y2="1022.31">
   <stop offset="0" style="stop-opacity:1; stop-color:#FFFDD1"/>
   <stop offset="0.4" style="stop-opacity:1; stop-color:#F4E3B3"/>
   <stop offset="1" style="stop-opacity:1; stop-color:#E8C994"/>
  </linearGradient>
  <linearGradient id="id20" gradientUnits="userSpaceOnUse" x1="1002.93" y1="18.39" x2="964.43" y2="520.31">
   <stop offset="0" style="stop-opacity:1; stop-color:#76B5A0"/>
   <stop offset="0.478431" style="stop-opacity:1; stop-color:#3E8379"/>
   <stop offset="1" style="stop-opacity:1; stop-color:#065152"/>
  </linearGradient>
  <linearGradient id="id21" gradientUnits="userSpaceOnUse" x1="40.56" y1="472.35" x2="467.75" y2="687.12">
   <stop offset="0" style="stop-opacity:1; stop-color:#096061"/>
   <stop offset="0.568627" style="stop-opacity:1; stop-color:#3F8A80"/>
   <stop offset="1" style="stop-opacity:1; stop-color:#76B5A0"/>
  </linearGradient>
 </defs>
 <g id="Camada_x0020_1">
  <metadata id="CorelCorpID_0Corel-Layer"/>
  <g id="_1665676877488">
   <path class="fil0" d="M242 1030.47c-12.56,9.72 -35.31,9.42 -61.49,10.1 -26.2,0.69 -55.84,2.36 -80.3,8.6 -24.46,6.23 -43.73,17.01 -57.05,28.79 -13.32,11.78 -20.68,24.54 -24.91,40.01 -4.24,15.48 -5.35,33.68 -2.62,53.85 2.71,20.18 9.27,42.34 16.79,61.68 7.52,19.33 16.01,35.84 30.59,51.02 14.58,15.19 35.25,29.04 54.41,39.11 19.15,10.08 36.8,16.38 52.05,19.85 15.26,3.48 28.12,4.12 43.64,2.09 15.53,-2.02 33.72,-6.7 54.16,-12.4 20.43,-5.69 43.1,-12.4 64.11,-16.01 21,-3.62 40.34,-4.15 60.94,-2.38 20.6,1.78 42.46,5.85 64.11,9.25 21.65,3.39 43.08,6.12 66.02,5.3 22.93,-0.82 47.37,-5.18 75.07,-14.8 27.7,-9.62 58.68,-24.5 86.37,-43.36 27.69,-18.87 52.1,-41.73 66.74,-56.02 14.64,-14.29 19.51,-20.02 24.6,-23.51 5.08,-3.49 10.39,-4.73 17.82,-2.28 7.42,2.44 16.96,8.57 34.17,14.03 17.21,5.45 42.09,10.22 69.35,13.46 27.26,3.24 56.9,4.94 82.29,4.43 25.39,-0.51 46.52,-3.24 63.65,-6.09 17.13,-2.85 30.26,-5.82 39.53,-5.88 9.28,-0.05 14.71,2.8 24.86,11.69 10.15,8.89 25.03,23.8 46.92,39.74 21.89,15.93 50.79,32.88 80.12,44.87 29.33,11.99 59.09,19.02 86.75,22.44 27.65,3.41 53.21,3.22 80.43,-0.21 27.21,-3.43 56.1,-10.1 80.31,-12.15 24.21,-2.04 43.74,0.53 64.58,5.54 20.84,5 42.98,12.43 62.68,17.41 19.7,4.98 36.97,7.5 59.35,5.92 22.38,-1.59 49.86,-7.29 75.54,-23.68 25.68,-16.39 49.55,-43.46 65.23,-66.47 15.67,-23.01 23.16,-41.96 27.81,-60.24 4.65,-18.29 6.48,-35.92 4.44,-53.59 -2.04,-17.67 -7.95,-35.39 -15.79,-49.86 -7.84,-14.47 -17.61,-25.7 -32.57,-33.66 -14.97,-7.96 -35.14,-12.64 -53.87,-16.36 -18.74,-3.73 -36.04,-6.5 -51.94,-5.99 -15.9,0.51 -30.39,4.3 -37.63,6.19 -7.25,1.9 -7.25,1.9 -9.34,-5.33 -2.1,-7.23 -6.28,-21.68 -12.48,-41.38 -6.19,-19.7 -14.4,-44.63 -26.53,-67.62 -12.14,-22.99 -28.2,-44.02 -42.44,-59.3 -14.25,-15.29 -26.69,-24.82 -41.6,-34.77 -14.92,-9.94 -32.31,-20.29 -50.08,-27.47 -17.77,-7.18 -35.93,-11.18 -52.55,-14.75 -16.63,-3.57 -31.72,-6.71 -49.54,-8.48 -17.81,-1.77 -38.34,-2.18 -45.46,4.23 -7.13,6.4 -0.86,19.61 1.31,42.31 2.16,22.69 0.21,54.89 -9.95,105.28 -10.16,50.39 -28.51,118.98 -70.4,168.21 -41.9,49.24 -107.32,79.12 -171.39,98.13 -64.07,19.01 -126.78,27.15 -187.53,16.26 -60.75,-10.9 -119.54,-40.82 -165.33,-81.12 -45.79,-40.3 -78.57,-90.97 -98.11,-137.26 -19.54,-46.3 -25.83,-88.2 -25.12,-124.05 0.7,-35.86 8.38,-65.65 11.16,-81.15 2.77,-15.51 0.63,-16.73 -14.71,-17.1 -15.35,-0.37 -43.9,0.11 -91.53,14.43 -47.63,14.31 -114.35,42.46 -157.24,76.64 -42.9,34.18 -61.99,74.39 -72.72,104.38 -10.73,29.98 -13.12,49.75 -25.68,59.48z"/>
   <g>
    <path class="fil1 str0" d="M213.67 1042.8c-32.1,-3.73 -64.2,-7.47 -95.38,-3.06 -31.19,4.4 -61.46,16.93 -81.09,37.23 -19.63,20.3 -28.61,48.36 -26.4,82.49 2.21,34.12 15.63,74.29 36.82,105.32 21.18,31.02 50.12,52.89 79.91,66.91 29.8,14.03 60.43,20.2 90.91,15.58 30.49,-4.62 60.81,-20.04 92.53,-28.47 31.72,-8.43 64.83,-9.88 89.05,-4.78 24.21,5.09 39.53,16.74 74.18,19.52 34.66,2.78 88.65,-3.3 132.68,-17.55 44.02,-14.25 78.07,-36.68 107.12,-62.36 29.06,-25.69 53.12,-54.64 60.02,-63.03 6.9,-8.38 -3.36,3.8 -8.49,9.9 -5.12,6.09 -5.12,6.09 -5.12,6.09"/>
   </g>
   <path class="fil2 str1" d="M1317.2 780.89c9.16,-1.26 29.69,-0.86 56.52,3.44 26.82,4.3 59.95,12.5 86.72,21.91 26.77,9.4 47.2,20.01 62.48,30.38 15.28,10.37 25.41,20.51 35.4,31.85 10,11.34 19.84,23.87 28.73,37.64 8.88,13.77 16.8,28.76 25.21,49.72 8.42,20.97 17.33,47.9 19.55,69.15 2.23,21.25 -2.22,36.82 -7.03,53.37 -4.81,16.55 -9.97,34.09 -22.09,49.14 -12.12,15.05 -31.19,27.62 -49.62,37.73 -18.43,10.11 -36.21,17.75 -50.37,18.78 -14.16,1.02 -24.7,-4.59 -35.2,-11.09 -10.5,-6.51 -20.97,-13.9 -30.41,-25.9 -9.44,-11.99 -17.86,-28.57 -20.02,-43.24 -2.17,-14.68 1.91,-27.43 8.8,-40.06 6.89,-12.63 16.58,-25.13 26.92,-30.24 10.33,-5.1 21.3,-2.8 32.65,0.39 11.36,3.18 23.1,7.27 33.17,13.65 10.08,6.38 18.5,15.05 24.24,15.3 5.74,0.26 8.8,-7.9 8.04,-20.15 -0.77,-12.25 -5.36,-28.58 -13.01,-42.48 -7.66,-13.91 -18.37,-25.39 -30.11,-34.7 -11.74,-9.32 -24.49,-16.46 -40.82,-20.67 -16.33,-4.21 -36.23,-5.49 -52.44,-4.34 -16.2,1.15 -28.7,4.72 -41.71,9.44 -13.02,4.72 -26.54,10.59 -38.12,14.01 -11.58,3.42 -21.22,4.39 -26.04,4.87 -4.81,0.49 -4.81,0.49 -3.19,-8.01 1.61,-8.5 4.86,-25.5 9.29,-41.81 4.44,-16.3 10.07,-31.91 11.92,-48.48 1.85,-16.57 -0.07,-34.11 -3.07,-48.02 -3,-13.91 -7.08,-24.19 -10.21,-30.79 -3.14,-6.61 -5.34,-9.53 3.82,-10.79z"/>
   <path class="fil3" d="M1778.6 807.07c-9.73,2.96 -26.71,32.34 -45.48,54.97 -18.77,22.63 -39.33,38.5 -59.55,50.27 -20.22,11.76 -40.1,19.41 -48.41,27.67 -8.31,8.27 -5.05,17.16 -2.4,27.31 2.64,10.15 4.67,21.56 6.69,32.14 2.03,10.58 4.05,20.34 6.81,26.97 2.77,6.62 6.26,10.12 15.19,8.09 8.93,-2.02 23.28,-9.57 41.05,-23.74 17.76,-14.17 38.92,-34.97 54.02,-55.22 15.09,-20.24 24.11,-39.94 30.89,-57.27 6.78,-17.33 11.33,-32.29 12.36,-51.5 1.03,-19.2 -1.44,-42.66 -11.17,-39.69z"/>
   <g>
    <path class="fil4" d="M1562.89 63.58c-10.34,-0.67 -24.93,-0.2 -37.7,3.98 -12.76,4.18 -23.71,12.06 -32.41,21.89 -8.7,9.82 -15.14,21.58 -18.78,32.13 -3.65,10.55 -4.49,19.89 -4.91,24.56 -0.43,4.66 -0.43,4.66 -3.89,1.83 -3.47,-2.83 -10.41,-8.48 -19.03,-12.34 -8.63,-3.85 -18.94,-5.91 -28.31,-4.97 -9.37,0.93 -17.81,4.86 -23.94,9.92 -6.13,5.07 -9.95,11.28 -12.31,17.63 -2.36,6.35 -3.26,12.84 -2.92,20.22 0.33,7.37 1.9,15.63 2.69,19.76 0.79,4.13 0.79,4.13 -0.95,4.99 -1.74,0.86 -5.23,2.57 -6.97,3.43 -1.74,0.85 -1.74,0.85 -1.74,0.85 0,0 0,0 -2.63,-4.28 -2.63,-4.29 -7.9,-12.86 -14.92,-19.38 -7.01,-6.52 -15.77,-10.99 -23.16,-12.75 -7.39,-1.75 -13.42,-0.79 -19.72,2.82 -6.3,3.6 -12.89,9.84 -17.48,15.62 -4.59,5.79 -7.2,11.13 -11.71,14.48 -4.5,3.34 -10.9,4.71 -14.1,5.39 -3.2,0.68 -3.2,0.68 -3.6,3.12 -0.4,2.44 -1.2,7.33 -0.24,11.4 0.96,4.06 3.69,7.3 11.52,8.88 7.84,1.59 20.78,1.52 45.13,1.38 24.33,-0.14 60.07,-0.34 90.05,-0.34 29.98,0 54.21,0.21 78.66,0.24 24.45,0.04 49.12,-0.09 65.33,-0.75 16.21,-0.66 23.97,-1.86 32.92,-5.5 8.95,-3.65 19.08,-9.75 27.26,-17.16 8.17,-7.41 14.38,-16.13 18.38,-27.66 3.99,-11.53 5.76,-25.86 4.85,-38.89 -0.92,-13.02 -4.54,-24.75 -9.09,-34.24 -4.56,-9.49 -10.06,-16.75 -15.75,-22.55 -5.69,-5.79 -11.57,-10.11 -16.26,-13.1 -4.7,-2.99 -8.22,-4.65 -13.03,-6.39 -4.81,-1.74 -10.9,-3.55 -21.24,-4.22z"/>
    <g style="clip-path:url(#id0)">
     <g>
      <path id="_1" class="fil5" d="M1438.84 244.53c2.15,-3.98 -2.39,-12.63 -5.19,-18.91 -2.81,-6.28 -3.87,-10.2 -5.74,-12.65 -1.88,-2.45 -4.57,-3.43 -6.95,-2.77 -2.38,0.65 -4.45,2.93 -5.56,5.08 -1.1,2.15 -1.24,4.17 -1.08,6.92 0.16,2.76 0.61,6.25 1.44,10.53 0.83,4.27 2.03,9.33 7.05,12.21 5.03,2.88 13.87,3.56 16.03,-0.41z"/>
     </g>
    </g>
    <path class="fil1" d="M1562.89 63.58c-10.34,-0.67 -24.93,-0.2 -37.7,3.98 -12.76,4.18 -23.71,12.06 -32.41,21.89 -8.7,9.82 -15.14,21.58 -18.78,32.13 -3.65,10.55 -4.49,19.89 -4.91,24.56 -0.43,4.66 -0.43,4.66 -3.89,1.83 -3.47,-2.83 -10.41,-8.48 -19.03,-12.34 -8.63,-3.85 -18.94,-5.91 -28.31,-4.97 -9.37,0.93 -17.81,4.86 -23.94,9.92 -6.13,5.07 -9.95,11.28 -12.31,17.63 -2.36,6.35 -3.26,12.84 -2.92,20.22 0.33,7.37 1.9,15.63 2.69,19.76 0.79,4.13 0.79,4.13 -0.95,4.99 -1.74,0.86 -5.23,2.57 -6.97,3.43 -1.74,0.85 -1.74,0.85 -1.74,0.85 0,0 0,0 -2.63,-4.28 -2.63,-4.29 -7.9,-12.86 -14.92,-19.38 -7.01,-6.52 -15.77,-10.99 -23.16,-12.75 -7.39,-1.75 -13.42,-0.79 -19.72,2.82 -6.3,3.6 -12.89,9.84 -17.48,15.62 -4.59,5.79 -7.2,11.13 -11.71,14.48 -4.5,3.34 -10.9,4.71 -14.1,5.39 -3.2,0.68 -3.2,0.68 -3.6,3.12 -0.4,2.44 -1.2,7.33 -0.24,11.4 0.96,4.06 3.69,7.3 11.52,8.88 7.84,1.59 20.78,1.52 45.13,1.38 24.33,-0.14 60.07,-0.34 90.05,-0.34 29.98,0 54.21,0.21 78.66,0.24 24.45,0.04 49.12,-0.09 65.33,-0.75 16.21,-0.66 23.97,-1.86 32.92,-5.5 8.95,-3.65 19.08,-9.75 27.26,-17.16 8.17,-7.41 14.38,-16.13 18.38,-27.66 3.99,-11.53 5.76,-25.86 4.85,-38.89 -0.92,-13.02 -4.54,-24.75 -9.09,-34.24 -4.56,-9.49 -10.06,-16.75 -15.75,-22.55 -5.69,-5.79 -11.57,-10.11 -16.26,-13.1 -4.7,-2.99 -8.22,-4.65 -13.03,-6.39 -4.81,-1.74 -10.9,-3.55 -21.24,-4.22z"/>
    <path class="fil5" d="M1572.56 83.71c-3.87,-1.12 -8.46,-1.79 -11.71,-0.38 -3.26,1.4 -5.18,4.87 -4.8,7.2 0.37,2.32 3.05,3.5 6.17,4.6 3.13,1.11 6.7,2.14 11.08,4.6 4.39,2.46 9.59,6.34 14.07,10.85 4.48,4.5 8.25,9.63 11.07,15.24 2.83,5.61 4.71,11.71 5.8,17.41 1.09,5.7 1.38,11.02 1.36,15.77 -0.02,4.75 -0.36,8.95 -0.54,11.61 -0.18,2.65 -0.21,3.78 1.62,4.35 1.82,0.57 5.5,0.58 8.08,-0.31 2.57,-0.9 4.06,-2.71 4.77,-7.6 0.72,-4.9 0.67,-12.87 -0.03,-20.61 -0.7,-7.74 -2.04,-15.26 -4.25,-21.84 -2.21,-6.58 -5.29,-12.23 -9.35,-17.22 -4.07,-4.99 -9.13,-9.31 -13.17,-12.43 -4.03,-3.12 -7.03,-5.04 -10.1,-6.79 -3.07,-1.75 -6.21,-3.32 -10.07,-4.45z"/>
   </g>
   <path class="fil6" d="M1307.4 622.81c17.93,-12.73 52.24,-36 81.04,-56.78 28.79,-20.79 52.09,-39.08 82.76,-62.51 30.67,-23.43 68.71,-51.98 106.44,-80.9 37.74,-28.91 75.17,-58.19 98.09,-76.18 22.92,-17.99 31.34,-24.71 36.31,-28.51 4.97,-3.8 6.51,-4.68 8.6,-6.7 2.09,-2.02 4.74,-5.18 8.54,-8.19 3.79,-3.02 8.74,-5.89 14.61,-8.64 5.87,-2.76 12.65,-5.38 21.96,-9.14 9.31,-3.75 21.15,-8.64 32.7,-13.08 11.54,-4.45 22.8,-8.45 28.43,-10.45 5.63,-2.01 5.63,-2.01 5.63,-2.01 0,0 0,0 -2.64,6.31 -2.65,6.31 -7.94,18.92 -14.11,31.38 -6.18,12.46 -13.24,24.77 -18.13,36.14 -4.89,11.36 -7.61,21.79 -11.09,28.03 -3.48,6.24 -7.72,8.3 -11.98,10.32 -4.27,2.01 -8.56,3.99 -15.75,8.7 -7.19,4.72 -17.29,12.17 -29.77,22.46 -12.48,10.28 -27.35,23.39 -45.29,37.07 -17.94,13.68 -38.96,27.94 -64.88,44.88 -25.92,16.94 -56.76,36.57 -84.07,53.66 -27.31,17.07 -51.09,31.6 -85.27,52.42 -34.17,20.82 -78.74,47.94 -103.27,62.11 -24.53,14.16 -29.02,15.37 -33.38,14.07 -4.35,-1.3 -8.57,-5.11 -12.22,-8.94 -3.65,-3.83 -6.74,-7.67 -9.04,-10.74 -2.3,-3.08 -3.81,-5.37 -3.77,-7.62 0.03,-2.24 1.61,-4.43 19.55,-17.16z"/>
   <path class="fil5" d="M1791.35 304.19c4.01,-10.37 3.96,-10.24 3.81,-10.15 -0.15,0.09 -0.39,0.14 -10.25,3.77 -9.87,3.62 -29.35,10.81 -39.09,14.41 -9.74,3.59 -9.74,3.59 -9.56,9.32 0.18,5.72 0.55,17.16 0.73,22.89 0.18,5.72 0.18,5.72 5.86,6.74 5.67,1.02 17.01,3.07 22.68,4.09 5.67,1.02 5.67,1.02 9.71,-9.41 4.03,-10.43 12.11,-31.29 16.11,-41.66z"/>
   <path class="fil7" d="M1309.42 672.64c16.14,-10.11 46.21,-26.47 78.9,-44.02 32.69,-17.56 67.99,-36.31 88.23,-49.26 20.23,-12.96 25.4,-20.11 28.05,-36.39 2.66,-16.27 2.8,-41.67 -3.86,-69.2 -6.66,-27.53 -20.12,-57.19 -38.08,-80.18 -17.96,-22.98 -40.42,-39.28 -63.38,-49.52 -22.95,-10.23 -46.41,-14.41 -70.06,-14.01 -23.66,0.4 -47.51,5.36 -75.54,19.18 -28.03,13.81 -60.23,36.47 -82.45,57.66 -22.23,21.18 -34.48,40.88 -45.66,59.43 -11.18,18.55 -21.3,35.95 -22.82,46.57 -1.53,10.62 5.53,14.47 14.65,20.93 9.13,6.45 20.32,15.51 34.03,23.16 13.72,7.66 29.96,13.9 38.25,15.07 8.29,1.18 8.63,-2.72 9.52,-9.42 0.88,-6.7 2.32,-16.2 6.08,-29.78 3.76,-13.59 9.84,-31.27 20.96,-48.86 11.14,-17.6 27.31,-35.12 43.64,-46.37 16.33,-11.25 32.81,-16.23 51.75,-16.3 18.94,-0.08 40.34,4.75 56.65,15.86 16.31,11.12 27.53,28.53 32.65,46.22 5.13,17.69 4.16,35.68 -1.11,50.69 -5.28,15.01 -14.87,27.06 -28.62,34.09 -13.74,7.03 -31.65,9.04 -45.1,6.87 -13.45,-2.16 -22.44,-8.5 -27.8,-17.36 -5.35,-8.86 -7.06,-20.25 -3.95,-28.98 3.1,-8.73 11.02,-14.8 14.31,-14.43 3.29,0.36 1.96,7.15 1.29,15.22 -0.67,8.07 -0.67,17.41 3.2,24.37 3.88,6.95 11.63,11.53 21.37,12.13 9.74,0.59 21.47,-2.79 30.91,-8.65 9.44,-5.86 16.6,-14.22 21.47,-24.35 4.87,-10.14 7.45,-22.07 7.16,-33.59 -0.3,-11.53 -3.48,-22.67 -9.65,-32.11 -6.16,-9.44 -15.3,-17.19 -27.13,-23.15 -11.83,-5.97 -26.33,-10.14 -38.46,-11.44 -12.12,-1.29 -21.87,0.3 -34.89,6.17 -13.01,5.86 -29.32,16 -42.34,30.61 -13.01,14.61 -22.76,33.69 -28.32,50.79 -5.57,17.09 -6.96,32.2 -6.98,44.97 -0.03,12.77 1.31,23.2 10.36,39.9 9.04,16.69 25.79,39.65 37.44,54.91 11.66,15.26 18.21,22.81 22.6,24.67 4.38,1.85 6.59,-2 22.73,-12.1z"/>
   <path class="fil8" d="M1092.49 499.67c5.95,-13.38 18.87,-36.83 31.69,-56.21 12.82,-19.38 25.54,-34.69 36.11,-45.98 10.58,-11.29 19,-18.57 28.21,-26.12 9.21,-7.54 19.22,-15.36 34.35,-24.14 15.14,-8.79 35.42,-18.55 51.44,-24.69 16.02,-6.13 27.8,-8.65 37.97,-10.09 10.17,-1.44 18.74,-1.81 29.41,-1.09 10.68,0.73 23.47,2.54 36.74,6.1 13.27,3.56 27.03,8.86 40.13,15.75 13.11,6.88 25.57,15.36 36.58,24.57 11.01,9.21 20.57,19.17 27.67,27.6 7.11,8.43 11.75,15.34 16.95,25.46 5.2,10.13 10.94,23.46 15.11,37.44 4.17,13.98 6.77,28.6 8.18,42.17 1.41,13.57 1.62,26.09 1.52,36.68 -0.09,10.59 -0.5,19.25 -1.01,24.58 -0.52,5.33 -1.13,7.33 -2.89,12.1 -1.76,4.78 -4.67,12.34 -7.66,17.14 -3,4.8 -6.1,6.84 -11.89,9.59 -5.78,2.75 -14.26,6.2 -24.87,11.09 -10.6,4.88 -23.32,11.2 -37.65,18.93 -14.32,7.73 -30.26,16.86 -46.23,26.23 -15.98,9.37 -32,18.98 -45.31,27.08 -13.32,8.11 -23.93,14.7 -30.63,18.93 -6.7,4.23 -9.48,6.1 -12.52,8.79 -3.04,2.7 -6.35,6.21 -9,8.27 -2.65,2.05 -4.63,2.65 -7.02,0.36 -2.38,-2.28 -5.17,-7.45 -6.16,-12.52 -0.99,-5.07 -0.2,-10.04 2.4,-13.15 2.59,-3.12 6.99,-4.38 17.97,-10.69 10.98,-6.31 28.56,-17.67 46.92,-28.92 18.37,-11.24 37.54,-22.38 54.41,-31.71 16.88,-9.32 31.47,-16.83 42.86,-22.46 11.39,-5.62 19.59,-9.36 27.63,-13.89 8.03,-4.53 15.9,-9.87 20.41,-14.05 4.51,-4.18 5.64,-7.2 6.56,-16.33 0.91,-9.12 1.6,-24.35 0.47,-38.33 -1.13,-13.99 -4.08,-26.73 -7.03,-39.57 -2.95,-12.83 -5.9,-25.76 -11.87,-38.94 -5.97,-13.19 -14.96,-26.63 -24.03,-37.59 -9.07,-10.96 -18.23,-19.45 -28.24,-26.91 -10.01,-7.46 -20.87,-13.91 -32.65,-19.05 -11.79,-5.14 -24.49,-8.98 -37,-11.16 -12.5,-2.17 -24.79,-2.69 -35.73,-2.17 -10.93,0.52 -20.51,2.06 -33.06,5.78 -12.55,3.72 -28.08,9.61 -41.35,16.04 -13.27,6.42 -24.28,13.39 -35.54,21.42 -11.27,8.02 -22.78,17.12 -35.34,29.78 -12.56,12.67 -26.17,28.91 -36.7,43.29 -10.53,14.39 -17.99,26.92 -23.32,37.02 -5.33,10.11 -8.52,17.79 -11.28,22.75 -2.76,4.96 -5.08,7.21 1.84,12.48 6.93,5.26 23.11,13.54 36.16,21.35 13.06,7.82 23,15.17 30.26,19.95 7.25,4.76 11.83,6.95 15.13,7.48 3.3,0.53 5.33,-0.59 6.84,-6.28 1.5,-5.69 2.49,-15.95 4.52,-26.88 2.04,-10.94 5.12,-22.57 9.97,-34.82 4.84,-12.25 11.45,-25.13 18.37,-35.49 6.92,-10.36 14.16,-18.21 23.34,-25.31 9.19,-7.09 20.33,-13.45 31.44,-17.72 11.11,-4.27 22.19,-6.46 33.1,-7.19 10.92,-0.73 21.67,-0.01 32.34,2.65 10.67,2.66 21.27,7.24 29.73,12.53 8.47,5.29 14.82,11.28 20.82,19.82 6.01,8.55 11.67,19.65 14.97,31.7 3.29,12.06 4.21,25.07 2.08,37.2 -2.13,12.12 -7.31,23.36 -13.44,32.03 -6.14,8.67 -13.22,14.76 -23.41,19.68 -10.19,4.91 -23.47,8.64 -35.17,8.94 -11.69,0.29 -21.79,-2.85 -29.65,-8 -7.85,-5.15 -13.46,-12.31 -16.56,-19.94 -3.09,-7.64 -3.68,-15.73 -2.36,-22.85 1.32,-7.12 4.55,-13.25 9.25,-17.04 4.69,-3.8 10.85,-5.25 15.52,-5.28 4.68,-0.03 7.87,1.36 8.69,5.02 0.84,3.65 -0.7,9.57 -2.96,15.4 -2.26,5.82 -5.26,11.56 -5.33,16.46 -0.08,4.9 2.77,8.96 6.27,12.03 3.51,3.07 7.67,5.15 12.35,6.09 4.69,0.93 9.9,0.71 16.47,-1.43 6.58,-2.14 14.52,-6.22 20.94,-11.7 6.43,-5.49 11.35,-12.39 14.5,-20.37 3.16,-7.98 4.55,-17.04 4.33,-25.68 -0.21,-8.64 -2.04,-16.86 -5.33,-24.58 -3.28,-7.72 -8.03,-14.93 -13.76,-20.84 -5.73,-5.91 -12.42,-10.51 -20.63,-13.87 -8.2,-3.36 -17.91,-5.5 -26.43,-6.31 -8.53,-0.81 -15.87,-0.29 -24.53,1.9 -8.64,2.19 -18.6,6.07 -26.99,10.57 -8.38,4.49 -15.2,9.62 -21.47,15.55 -6.27,5.93 -11.98,12.68 -16.85,20.4 -4.87,7.72 -8.9,16.43 -11.84,25.63 -2.94,9.2 -4.79,18.9 -5.45,29.22 -0.67,10.32 -0.14,21.27 0.69,30.54 0.83,9.28 1.98,16.89 2.67,22.35 0.7,5.47 0.95,8.79 -4.09,7.17 -5.05,-1.62 -15.38,-8.17 -25.31,-13.92 -9.92,-5.74 -19.44,-10.67 -31.47,-17.73 -12.04,-7.06 -26.6,-16.24 -37.71,-22.7 -11.1,-6.46 -18.74,-10.2 -25.08,-14.31 -6.33,-4.12 -11.36,-8.61 -14.38,-12.5 -3.02,-3.9 -4.05,-7.2 1.9,-20.58z"/>
   <path class="fil9" d="M1297.07 702.41c-1,-8.64 0.77,-10.86 29.7,-27.71 28.93,-16.85 85.02,-48.33 124.37,-68.61 39.35,-20.28 61.95,-29.37 88.67,-33.25 26.71,-3.88 57.52,-2.55 85.45,5.21 27.94,7.76 52.99,21.95 75.04,41.45 22.06,19.51 41.13,44.34 53.43,73.16 12.3,28.82 17.85,61.62 16.46,89.98 -1.39,28.35 -9.71,52.25 -23.9,72.2 -14.19,19.96 -34.24,35.96 -55.99,50.62 -21.74,14.67 -45.18,28 -60.39,29.93 -15.21,1.92 -22.2,-7.54 -31.35,-20.79 -9.15,-13.25 -20.46,-30.29 -35.73,-47.63 -15.27,-17.33 -34.5,-34.97 -43.11,-46.34 -8.62,-11.37 -6.62,-16.47 -0.86,-22.67 5.76,-6.21 15.3,-13.53 23.83,-19.51 8.53,-5.99 16.07,-10.64 23.17,-11.2 7.09,-0.55 13.74,3 17.29,8.1 3.54,5.09 3.99,11.74 3.65,19.39 -0.33,7.65 -1.44,16.29 0.78,23.61 2.22,7.32 7.76,13.3 15.41,16.18 7.65,2.89 17.4,2.66 26.71,-1.22 9.31,-3.88 18.18,-11.41 25.27,-19.17 7.1,-7.76 12.42,-15.74 15.19,-27.27 2.77,-11.53 2.99,-26.6 -0.11,-40.23 -3.11,-13.64 -9.54,-25.83 -17.52,-35.58 -7.98,-9.76 -17.51,-17.07 -29.04,-22.95 -11.52,-5.87 -25.05,-10.31 -40.34,-11.52 -15.3,-1.22 -32.37,0.77 -50.66,5.54 -18.29,4.76 -37.79,12.3 -56.19,21.17 -18.4,8.87 -35.69,19.06 -50.55,28.7 -14.85,9.65 -27.26,18.74 -37.21,26.61 -9.95,7.86 -17.44,14.51 -26.75,17.72 -9.31,3.22 -20.44,3 -27.9,1.45 -7.45,-1.55 -11.22,-4.43 -15.32,-10.75 -4.1,-6.32 -8.53,-16.07 -12.64,-28.48 -4.1,-12.42 -7.86,-27.49 -8.86,-36.14z"/>
   <path class="fil10" d="M1380.27 779.4c4.74,-7.71 15.66,-21.12 35.72,-35.53 20.06,-14.41 49.27,-29.82 71.84,-40.08 22.57,-10.25 38.49,-15.35 52.58,-18.37 14.1,-3.03 26.36,-3.98 37.45,-4.22 11.1,-0.24 21.03,0.23 31.06,3.16 10.04,2.92 20.18,8.3 27.98,15.85 7.81,7.54 13.28,17.25 18.73,27.36 5.45,10.11 10.87,20.63 13.43,29.87 2.57,9.24 2.27,17.21 -1.31,27.22 -3.57,10.01 -10.43,22.07 -18.68,30.45 -8.25,8.37 -17.89,13.06 -25.74,14.69 -7.84,1.63 -13.89,0.19 -19.55,-2.22 -5.66,-2.42 -10.93,-5.83 -12.68,-12.27 -1.76,-6.45 0.01,-15.95 -0.06,-23.64 -0.07,-7.69 -1.98,-13.58 -5.41,-18.6 -3.42,-5.02 -8.35,-9.15 -15.28,-9.87 -6.93,-0.72 -15.84,1.99 -24.04,6.45 -8.2,4.46 -15.69,10.67 -20.95,17.57 -5.27,6.9 -8.32,14.49 -11.66,19.63 -3.35,5.13 -7,7.81 -13.76,6.56 -6.75,-1.25 -16.61,-6.42 -32.77,-11.56 -16.16,-5.14 -38.61,-10.23 -54.46,-12.01 -15.85,-1.77 -25.09,-0.23 -30.43,-0.47 -5.33,-0.24 -6.75,-2.26 -2.01,-9.97z"/>
   <path class="fil11" d="M807.56 468.13c-11.81,-41.2 -29.43,-120.95 -44.7,-188.47 -15.26,-67.53 -28.18,-122.83 -36.93,-156.07 -8.74,-33.25 -13.33,-44.42 -12.61,-51.27 0.71,-6.85 6.72,-9.36 13.96,-12.83 7.24,-3.47 15.7,-7.9 27.7,-12.51 12,-4.62 27.55,-9.42 39.72,-11.92 12.16,-2.51 20.94,-2.73 26.94,-0.88 6.01,1.85 9.23,5.75 11.88,13.16 2.66,7.42 4.74,18.33 8.5,41.76 3.77,23.43 9.22,59.38 15.34,99.59 6.13,40.21 12.94,84.69 18.33,118.53 5.4,33.83 9.38,57.02 13.72,82.78 4.34,25.76 9.05,54.1 12.58,71.67 3.54,17.57 5.9,24.37 4.62,29.91 -1.28,5.55 -6.19,9.83 -14.15,13.18 -7.95,3.34 -18.94,5.74 -29.63,7.23 -10.69,1.48 -21.07,2.06 -29.26,1.02 -8.19,-1.04 -14.2,-3.69 -26.01,-44.88z"/>
   <path class="fil12" d="M925.6 487.85c-5.76,-6.7 -5.6,-18.94 -4.4,-43.26 1.21,-24.33 3.47,-60.74 5.31,-95.99 1.85,-35.25 3.28,-69.34 4.31,-109.26 1.04,-39.92 1.67,-85.67 2.45,-119.75 0.77,-34.08 1.69,-56.5 2.98,-70.18 1.3,-13.68 2.97,-18.63 5.87,-22.24 2.9,-3.61 7.01,-5.89 18.01,-7.15 10.99,-1.26 28.87,-1.5 42.8,-1.63 13.94,-0.14 23.94,-0.17 32.13,1.25 8.19,1.42 14.56,4.3 18.44,8.72 3.88,4.42 5.26,10.39 5.1,22.39 -0.17,12 -1.89,30.04 -3.75,48.47 -1.86,18.43 -3.87,37.26 -5.43,55.63 -1.56,18.37 -2.67,36.29 -5.5,59.67 -2.82,23.38 -7.36,52.23 -11.51,82.93 -4.15,30.69 -7.91,63.24 -11.13,89.07 -3.23,25.83 -5.93,44.94 -7.39,58.81 -1.46,13.88 -1.68,22.52 -2.51,29.94 -0.82,7.42 -2.24,13.63 -7.94,17.3 -5.7,3.67 -15.67,4.81 -24.5,5.1 -8.83,0.28 -16.53,-0.29 -26.21,-1.14 -9.69,-0.86 -21.37,-1.99 -27.13,-8.68z"/>
   <path class="fil13" d="M1023.87 488.86c2.46,-8.73 6.42,-22.97 16.17,-55.55 9.75,-32.59 25.29,-83.53 37.89,-125.54 12.6,-42.01 22.26,-75.1 30.55,-102.95 8.3,-27.85 15.21,-50.46 20.47,-68.48 5.26,-18.02 8.86,-31.45 11.68,-42.6 2.83,-11.16 4.9,-20.04 7.53,-27.71 2.63,-7.68 5.84,-14.14 9.53,-18.41 3.69,-4.27 7.86,-6.34 13.53,-6.23 5.66,0.1 12.81,2.39 20.91,6.27 8.1,3.87 17.14,9.34 28.66,14.66 11.52,5.32 25.52,10.5 32.6,15.87 7.09,5.37 7.25,10.93 2.03,28.59 -5.23,17.65 -15.84,47.4 -33.53,95.23 -17.69,47.83 -42.46,113.74 -58.1,156.05 -15.65,42.31 -22.17,61.02 -28.77,79.67 -6.6,18.65 -13.27,37.24 -17.68,50.8 -4.4,13.56 -6.52,22.09 -11.56,26.74 -5.03,4.64 -12.97,5.41 -24.24,3.54 -11.26,-1.87 -25.85,-6.36 -36.74,-9.27 -10.89,-2.91 -18.09,-4.22 -21.22,-6.48 -3.12,-2.27 -2.17,-5.48 0.29,-14.2z"/>
   <path class="fil14" d="M728.44 569.87c-5,-5.48 -11.3,-18.88 -24.03,-44.9 -12.72,-26.02 -31.88,-64.67 -53.32,-106.95 -21.45,-42.29 -45.18,-88.22 -61.16,-119.51 -15.98,-31.28 -24.22,-47.91 -29.43,-60.08 -5.2,-12.18 -7.37,-19.9 -4.61,-26.53 2.77,-6.63 10.48,-12.17 19.85,-16.65 9.36,-4.48 20.39,-7.91 29.09,-8.76 8.69,-0.85 15.04,0.88 20.88,1.62 5.83,0.75 11.14,0.51 16.81,2.44 5.67,1.92 11.7,6.03 16.16,10.25 4.46,4.22 7.36,8.56 11.46,16.5 4.1,7.93 9.41,19.45 19.54,42.32 10.13,22.87 25.09,57.1 39.85,90.43 14.76,33.34 29.32,65.79 42.35,92.74 13.03,26.96 24.51,48.42 30.72,58.97 6.2,10.56 7.13,10.22 6.65,13.83 -0.47,3.6 -2.32,11.15 -9.55,17.39 -7.22,6.23 -19.81,11.16 -30.51,17.19 -10.7,6.04 -19.52,13.17 -25.78,17.96 -6.27,4.78 -9.97,7.22 -14.97,1.74z"/>
   <path class="fil15" d="M716.32 570.68c-6.01,-9.94 -18.26,-24.9 -38.44,-48.11 -20.17,-23.21 -48.27,-54.69 -77.9,-87.71 -29.63,-33.03 -60.79,-67.61 -79.7,-88.58 -18.92,-20.98 -25.59,-28.35 -30.96,-32.04 -5.38,-3.7 -9.46,-3.74 -15.47,0 -6,3.74 -13.92,11.25 -22.44,19.93 -8.51,8.67 -17.6,18.52 -24.37,25.73 -6.76,7.2 -11.2,11.75 -9.21,20.01 2,8.26 10.43,20.21 23.86,36.56 13.43,16.35 31.86,37.09 51.88,59.63 20.02,22.53 41.63,46.85 63.08,70.21 21.46,23.37 42.76,45.77 55.65,59.54 12.89,13.76 17.36,18.89 22.61,23.54 5.25,4.64 11.27,8.79 17.36,11.45 6.09,2.67 12.26,3.84 17.86,-0.1 5.61,-3.95 10.65,-13.01 17.01,-21.28 6.37,-8.27 14.05,-15.74 20.05,-20.43 6.01,-4.7 10.34,-6.62 12.62,-10.05 2.29,-3.42 2.52,-8.35 -3.49,-18.3z"/>
   <path class="fil16" d="M647.67 625.12c-18.27,-12.26 -53.17,-34.61 -82.51,-54.63 -29.33,-20.02 -53.1,-37.69 -84.38,-60.3 -31.27,-22.61 -70.05,-50.16 -108.54,-78.07 -38.48,-27.91 -76.67,-56.18 -100.06,-73.57 -23.39,-17.38 -31.98,-23.87 -37.05,-27.54 -5.07,-3.67 -6.63,-4.51 -8.77,-6.47 -2.14,-1.97 -4.87,-5.05 -8.75,-7.97 -3.88,-2.91 -8.9,-5.65 -14.84,-8.25 -5.94,-2.6 -12.79,-5.04 -22.2,-8.55 -9.4,-3.51 -21.36,-8.08 -33.02,-12.22 -11.66,-4.14 -23.02,-7.84 -28.7,-9.7 -5.68,-1.85 -5.68,-1.85 -5.68,-1.85 0,0 0,0 2.81,6.23 2.81,6.24 8.43,18.71 14.93,31 6.5,12.3 13.88,24.41 19.07,35.65 5.19,11.23 8.19,21.58 11.83,27.73 3.64,6.14 7.94,8.09 12.25,10 4.32,1.9 8.65,3.76 15.97,8.28 7.31,4.52 17.6,11.71 30.35,21.67 12.75,9.95 27.96,22.66 46.25,35.86 18.3,13.21 39.68,26.9 66.05,43.16 26.36,16.25 57.7,35.06 85.45,51.42 27.75,16.35 51.91,30.24 86.62,50.15 34.71,19.92 79.97,45.85 104.87,59.37 24.9,13.51 29.42,14.6 33.74,13.19 4.32,-1.42 8.43,-5.34 11.98,-9.27 3.55,-3.92 6.54,-7.84 8.76,-10.97 2.21,-3.13 3.66,-5.47 3.57,-7.71 -0.1,-2.25 -1.73,-4.39 -20,-16.64z"/>
   <path class="fil5" d="M155.48 319.37c-4.28,-10.26 -4.22,-10.14 -4.07,-10.06 0.16,0.09 0.4,0.14 10.35,3.5 9.95,3.37 29.62,10.04 39.45,13.38 9.84,3.34 9.84,3.34 9.8,9.06 -0.03,5.73 -0.09,17.18 -0.12,22.9 -0.03,5.73 -0.03,5.73 -5.68,6.9 -5.64,1.17 -16.92,3.51 -22.57,4.69 -5.64,1.17 -5.64,1.17 -9.95,-9.15 -4.31,-10.32 -12.93,-30.96 -17.21,-41.22z"/>
   <path class="fil17" d="M597.66 716.13c-16.09,-7.98 -46.33,-22.08 -74.64,-35.86 -28.31,-13.79 -54.7,-27.25 -89.3,-44.33 -34.61,-17.07 -77.44,-37.76 -120.05,-58.86 -42.6,-21.1 -84.97,-42.62 -110.93,-55.85 -25.96,-13.24 -35.51,-18.21 -41.12,-20.98 -5.61,-2.77 -7.29,-3.34 -9.73,-4.92 -2.44,-1.58 -5.65,-4.17 -9.96,-6.39 -4.3,-2.23 -9.72,-4.09 -16,-5.66 -6.29,-1.58 -13.46,-2.84 -23.31,-4.73 -9.86,-1.9 -22.42,-4.41 -34.61,-6.54 -12.18,-2.14 -24,-3.9 -29.91,-4.78 -5.91,-0.88 -5.91,-0.88 -5.91,-0.88 0,0 0,0 3.81,5.68 3.81,5.68 11.43,17.04 19.89,28.07 8.46,11.04 17.76,21.76 24.75,31.97 6.99,10.21 11.67,19.91 16.29,25.37 4.62,5.45 9.17,6.66 13.75,7.81 4.57,1.16 9.16,2.27 17.12,5.51 7.97,3.24 19.31,8.61 33.54,16.3 14.24,7.68 31.35,17.68 51.59,27.65 20.24,9.97 43.61,19.9 72.32,31.53 28.7,11.63 62.74,24.95 92.83,36.45 30.08,11.49 56.22,21.16 89.82,33.94 33.59,12.79 74.64,28.69 97.48,36.81 22.85,8.11 27.5,8.43 31.52,6.31 4.02,-2.11 7.42,-6.67 10.26,-11.13 2.85,-4.46 5.14,-8.83 6.81,-12.28 1.66,-3.46 2.7,-6 2.23,-8.2 -0.47,-2.19 -2.43,-4.04 -18.54,-12.01z"/>
   <path class="fil5" d="M81.14 502.06c-5.93,-9.41 -5.85,-9.3 -5.69,-9.24 0.17,0.06 0.42,0.07 10.79,1.73 10.38,1.65 30.88,4.95 41.13,6.61 10.25,1.65 10.25,1.65 11.18,7.3 0.92,5.64 2.77,16.95 3.69,22.6 0.93,5.64 0.93,5.64 -4.44,7.74 -5.37,2.1 -16.11,6.29 -21.48,8.39 -5.36,2.1 -5.36,2.1 -11.33,-7.36 -5.97,-9.46 -17.91,-28.37 -23.85,-37.77z"/>
   <circle class="fil18" cx="957.45" cy="858.7" r="321.58"/>
   <path class="fil19" d="M594.36 781.41c-15.38,-4.98 -52.06,-4.21 -78.58,-3 -26.53,1.21 -42.89,2.87 -59.93,8.94 -17.05,6.07 -34.76,16.56 -53.02,26.56 -18.27,10 -37.08,19.5 -55.58,42.9 -18.5,23.39 -36.69,60.69 -46.16,91.44 -9.45,30.76 -10.18,54.97 -7.25,78.26 2.93,23.3 9.52,45.68 19.71,66.73 10.2,21.05 24,40.76 42.21,53.64 18.2,12.88 40.8,18.92 59.67,23.05 18.87,4.12 34.01,6.31 52.81,3.63 18.8,-2.69 41.26,-10.26 60.06,-20.87 18.8,-10.62 33.93,-24.3 50.66,-40.66 16.72,-16.35 35.03,-35.4 45.95,-47.46 10.91,-12.06 14.44,-17.15 15.06,-20.31 0.62,-3.16 -1.66,-4.39 -5.74,-13.2 -4.08,-8.81 -9.96,-25.2 -16.84,-49.58 -6.89,-24.39 -14.77,-56.77 -18.19,-87.04 -3.42,-30.28 -2.37,-58.44 1.12,-77.89 3.49,-19.45 9.42,-30.17 -5.96,-35.14z"/>
   <path class="fil8" d="M588.73 923.21c-6.9,-1.26 -20.53,-10.01 -35.42,-16.41 -14.9,-6.39 -31.05,-10.43 -43.19,-11.91 -12.13,-1.49 -20.25,-0.41 -30.86,3.15 -10.61,3.56 -23.72,9.6 -33.75,15.85 -10.03,6.23 -16.97,12.67 -23.47,20.33 -6.5,7.65 -12.55,16.53 -16.61,26.75 -4.07,10.22 -6.15,21.78 -6.07,33.1 0.09,11.33 2.34,22.42 6.19,31.72 3.86,9.3 9.32,16.81 16.12,23.42 6.81,6.62 14.95,12.35 22.23,15.72 7.28,3.37 13.69,4.37 21.29,3.51 7.6,-0.86 16.39,-3.59 26.43,-9.29 10.05,-5.7 21.36,-14.37 27.09,-23.15 5.74,-8.78 5.91,-17.66 5.65,-25.63 -0.25,-7.97 -0.92,-15.04 -3.97,-22.24 -3.04,-7.19 -8.45,-14.51 -15.33,-13.46 -6.87,1.06 -15.2,10.49 -17.78,18.81 -2.59,8.31 0.57,15.51 3.02,20.16 2.44,4.64 4.17,6.74 4.72,9.48 0.56,2.73 -0.05,6.12 -1.79,8.46 -1.73,2.35 -4.6,3.65 -8.93,2.81 -4.33,-0.85 -10.14,-3.84 -13.99,-9.77 -3.85,-5.93 -5.76,-14.8 -5.64,-23.57 0.12,-8.78 2.27,-17.46 6.49,-25.06 4.23,-7.59 10.54,-14.1 18.14,-17.77 7.61,-3.66 16.49,-4.48 24.05,-2.96 7.56,1.53 13.79,5.4 19.24,11.45 5.45,6.05 10.13,14.28 12.83,23.96 2.69,9.68 3.39,20.8 0.61,32.19 -2.79,11.4 -9.07,23.06 -17.87,32.91 -8.79,9.86 -20.11,17.91 -30.83,23.82 -10.71,5.9 -20.82,9.66 -31.85,10.31 -11.02,0.65 -22.97,-1.82 -32.37,-5.13 -9.39,-3.32 -16.24,-7.5 -24.35,-15.76 -8.1,-8.26 -17.46,-20.61 -23.44,-32.33 -5.97,-11.71 -8.54,-22.79 -8.92,-36.09 -0.38,-13.3 1.43,-28.84 5.26,-41.9 3.83,-13.06 9.67,-23.64 18.88,-34.54 9.21,-10.9 21.79,-22.12 33.67,-30.13 11.88,-8.02 23.06,-12.82 34.06,-16.44 11,-3.62 21.82,-6.04 34.24,-5.71 12.43,0.34 26.46,3.43 39.84,7.11 13.39,3.67 26.12,7.92 34.62,12.01 8.49,4.09 12.74,8.02 15.2,11.49 2.46,3.48 3.13,6.51 3.38,11.14 0.25,4.63 0.08,10.85 -6.82,9.59z"/>
   <path class="fil20" d="M646.07 655.88c-7.41,-10.74 -24.15,-24.48 -45.84,-36.6 -21.67,-12.11 -48.3,-22.61 -75.94,-30.42 -27.65,-7.8 -56.32,-12.92 -84.22,-12.79 -27.9,0.12 -55.03,5.5 -81.91,13.82 -26.87,8.32 -53.5,19.58 -74.1,30.84 -20.61,11.27 -35.2,22.53 -49.66,37.89 -14.46,15.35 -28.8,34.81 -40.83,56.18 -12.03,21.38 -21.76,44.67 -28.16,66.68 -6.39,22.02 -9.46,42.75 -9.72,66.43 -0.26,23.67 2.3,50.3 9.47,77.56 7.17,27.26 18.94,55.16 31.1,76.53 12.16,21.38 24.7,36.22 38.91,50.05 14.2,13.82 30.07,26.62 40.44,34.04 10.37,7.42 15.23,9.47 18.69,10.62 3.45,1.15 5.5,1.41 5.5,-5.16 -0.01,-6.57 -2.06,-19.97 -6,-40.02 -3.93,-20.05 -9.75,-46.75 -13.59,-66.93 -3.83,-20.18 -5.69,-33.83 -10.07,-50.13 -4.38,-16.3 -11.3,-35.24 -13.98,-55.46 -2.69,-20.22 -1.15,-41.73 6.91,-65.02 8.06,-23.29 22.65,-48.38 39.8,-68.34 17.15,-19.97 36.86,-34.82 59,-45.18 22.14,-10.37 46.72,-16.26 70.52,-18.3 23.81,-2.05 46.85,-0.26 67.32,4.22 20.48,4.48 38.4,11.65 53.12,18.43 14.72,6.78 26.23,13.18 34.81,17.79 8.58,4.61 14.21,7.42 20.48,5.25 6.27,-2.18 13.18,-9.35 20.21,-17.8 7.04,-8.46 14.19,-18.21 18.72,-26.96 4.53,-8.74 6.44,-16.48 -0.98,-27.22z"/>
   <path class="fil21" d="M589.65 772.8c-15.67,0.8 -44.06,-0.29 -72.92,3.34 -28.87,3.62 -58.2,11.96 -82.54,22.16 -24.35,10.2 -43.71,22.26 -61.43,36.78 -17.71,14.51 -33.8,31.49 -44.97,44.89 -11.16,13.4 -17.41,23.23 -21.81,34.17 -4.39,10.95 -6.92,23.01 -9.01,29.63 -2.08,6.63 -3.72,7.82 -5.88,11.03 -2.16,3.2 -4.83,8.4 -9.75,2.82 -4.91,-5.58 -12.06,-21.96 -16.7,-42.35 -4.64,-20.38 -6.77,-44.78 -7.22,-64.28 -0.44,-19.51 0.8,-34.13 6.48,-50.82 5.68,-16.68 15.8,-35.45 30.24,-52.12 14.45,-16.68 33.21,-31.27 53.08,-41.36 19.86,-10.1 40.84,-15.69 61.46,-19.78 20.62,-4.1 40.89,-6.7 61.16,-6.36 20.26,0.34 40.51,3.62 58.34,10.15 17.84,6.53 33.25,16.32 46.17,23.05 12.92,6.74 23.35,10.42 29.26,16.33 5.92,5.9 7.32,14.02 7.84,20.48 0.53,6.46 0.17,11.26 -1.5,15 -1.66,3.75 -4.62,6.44 -20.3,7.24z"/>
   <path class="fil8" d="M658.74 641.04c-4.82,-6.94 -18.57,-14.6 -35.8,-24.15 -17.23,-9.54 -37.93,-20.97 -61.42,-30.53 -23.49,-9.56 -49.76,-17.24 -74.64,-21.46 -24.89,-4.21 -48.39,-4.96 -69.31,-3.69 -20.92,1.26 -39.26,4.52 -60.33,11.18 -21.07,6.65 -44.86,16.69 -67.29,29.3 -22.42,12.61 -43.49,27.78 -61.44,45.11 -17.96,17.34 -32.82,36.83 -44.67,57.17 -11.85,20.34 -20.71,41.54 -27.08,65.28 -6.37,23.73 -10.26,50.01 -11.54,73.56 -1.29,23.55 0.02,44.38 4.29,67.13 4.27,22.74 11.48,47.42 20.41,68.53 8.93,21.11 19.58,38.67 30.55,54.34 10.98,15.67 22.28,29.45 39.81,45.2 17.53,15.76 41.3,33.49 58.03,44.84 16.73,11.35 26.42,16.32 31.95,17.33 5.54,1.01 6.91,-1.95 5.22,-6.7 -1.7,-4.75 -6.48,-11.3 -13.28,-25.39 -6.79,-14.08 -15.59,-35.72 -21.63,-54.46 -6.04,-18.75 -9.31,-34.6 -10.07,-47.55 -0.75,-12.96 1.01,-23.02 0.36,-33.33 -0.66,-10.3 -3.72,-20.84 -8.05,-32.5 -4.32,-11.66 -9.9,-24.42 -13.45,-39.69 -3.55,-15.26 -5.08,-33.02 -4.15,-49.63 0.93,-16.62 4.32,-32.08 10.12,-47.3 5.81,-15.22 14.02,-30.2 24.39,-43.82 10.38,-13.63 22.91,-25.91 37.2,-36.11 14.28,-10.21 30.32,-18.34 46.99,-23.99 16.67,-5.64 33.98,-8.81 48.66,-10.09 14.68,-1.27 26.72,-0.64 41.28,1.51 14.55,2.15 31.61,5.81 47.72,11.37 16.11,5.55 31.28,12.99 44.03,20.56 12.75,7.56 23.08,15.24 30.88,18.43 7.79,3.18 13.06,1.86 16.13,-2.23 3.07,-4.09 3.95,-10.96 0.95,-15.53 -2.99,-4.57 -9.85,-6.82 -21.8,-13.08 -11.94,-6.26 -28.96,-16.52 -45.46,-23.82 -16.49,-7.31 -32.45,-11.65 -48.62,-14.68 -16.17,-3.03 -32.54,-4.75 -49.41,-4.58 -16.88,0.18 -34.26,2.25 -51.14,6.17 -16.89,3.92 -33.28,9.69 -47.45,16.74 -14.17,7.05 -26.12,15.38 -37.81,25.3 -11.69,9.93 -23.12,21.46 -33.6,36.78 -10.48,15.32 -20.01,34.43 -26.07,53.44 -6.06,19 -8.66,37.9 -8.21,57.98 0.45,20.07 3.95,41.33 9.28,58.12 5.33,16.8 12.5,29.14 15.7,43.67 3.2,14.53 2.43,31.26 3.68,47.92 1.25,16.66 4.52,33.27 8.33,44.98 3.81,11.71 8.15,18.52 10.32,21.93 2.18,3.4 2.18,3.4 2.18,3.4 0,0 0,0 -5.68,-3.37 -5.68,-3.37 -17.03,-10.12 -31.17,-23.11 -14.14,-12.99 -31.07,-32.23 -45.27,-53.69 -14.2,-21.46 -25.67,-45.16 -33.28,-71.41 -7.61,-26.26 -11.36,-55.07 -11.85,-79.45 -0.5,-24.38 2.25,-44.33 7.44,-64.48 5.2,-20.16 12.84,-40.53 25.22,-62.42 12.39,-21.89 29.53,-45.29 47.19,-63.4 17.66,-18.11 35.85,-30.92 58.07,-42.63 22.21,-11.72 48.46,-22.35 69.23,-28.63 20.76,-6.29 36.04,-8.24 54.91,-8.52 18.87,-0.28 41.33,1.1 60.61,4.13 19.28,3.03 35.37,7.7 50.8,13.46 15.42,5.75 30.18,12.58 45,20.38 14.83,7.8 29.74,16.58 39.52,24.88 9.79,8.3 14.47,16.13 18.8,18.51 4.33,2.37 8.32,-0.72 12.38,-5.37 4.05,-4.66 8.16,-10.89 3.34,-17.84z"/>
   <path class="fil8" d="M596.51 771.59c-8.7,-3.16 -26.54,-6.15 -51.43,-6.86 -24.9,-0.72 -56.83,0.83 -87.29,9.85 -30.45,9.02 -59.43,25.51 -82.76,43 -23.33,17.5 -41.03,36 -54.44,54.88 -13.41,18.87 -22.54,38.13 -28.51,52.4 -5.96,14.26 -8.78,23.55 -10.75,36.71 -1.96,13.15 -3.08,30.16 3.38,58.25 6.46,28.09 20.49,67.26 30.04,89.82 9.55,22.57 14.61,28.54 21.87,34.49 7.26,5.96 16.72,11.91 27.68,17.9 10.97,6 23.44,12.04 37.1,16.38 13.66,4.35 28.52,6.99 44.03,7.4 15.52,0.41 31.69,-1.41 49.6,-6.08 17.91,-4.67 37.56,-12.19 57.45,-27.53 19.89,-15.34 40.03,-38.5 57.05,-56.22 17.02,-17.72 30.93,-30.02 35.54,-38.14 4.63,-8.11 -0.04,-12.06 -3.47,-15.5 -3.44,-3.44 -5.66,-6.37 -14.01,-0.03 -8.34,6.34 -22.82,21.96 -34.4,34.35 -11.57,12.39 -20.24,21.55 -31.82,32.72 -11.57,11.16 -26.04,24.34 -42.88,33.73 -16.84,9.39 -36.04,14.99 -55.21,16.7 -19.16,1.7 -38.29,-0.48 -56.59,-6.49 -18.3,-6.01 -35.79,-15.85 -49.76,-27.49 -13.98,-11.65 -24.45,-25.11 -32.64,-37.76 -8.19,-12.65 -14.09,-24.49 -17.81,-34.95 -3.71,-10.46 -5.24,-19.54 -6.22,-29.97 -0.98,-10.43 -1.42,-22.2 -0.1,-36.36 1.32,-14.15 4.39,-30.68 11.61,-49.91 7.23,-19.23 18.62,-41.17 32.64,-60.63 14.03,-19.47 30.69,-36.48 49.83,-50.05 19.15,-13.57 40.79,-23.72 61.44,-30.22 20.66,-6.49 40.32,-9.34 60.06,-10.27 19.73,-0.94 39.53,0.04 53.3,0.54 13.77,0.49 21.52,0.51 26.4,-0.37 4.87,-0.89 6.87,-2.67 8.1,-5.23 1.22,-2.56 1.67,-5.9 -7.03,-9.06z"/>
   <path class="fil8" d="M1305.8 754.87c2.75,-0.08 7.76,6.04 13.21,9.47 5.44,3.42 11.32,4.15 23.53,3.77 12.2,-0.38 30.74,-1.87 49.76,0.66 19.02,2.53 38.54,9.08 60.3,17.42 21.76,8.35 45.77,18.49 69.17,33.05 23.41,14.56 46.21,33.55 64.25,55.82 18.03,22.27 31.31,47.81 40.64,73.46 9.34,25.64 14.72,51.38 17.42,64.25 2.69,12.87 2.69,12.87 2.69,12.87 0,0 0,0 6.39,-3.2 6.38,-3.19 19.16,-9.58 34.65,-22.32 15.49,-12.73 33.68,-31.82 48.76,-52.7 15.09,-20.88 27.05,-43.54 33.84,-62.1 6.8,-18.56 8.43,-33.01 8.14,-46.99 -0.29,-13.98 -2.5,-27.5 -4.22,-36.7 -1.71,-9.2 -2.93,-14.1 -2.44,-18.89 0.5,-4.79 2.7,-9.48 4.65,-11.58 1.96,-2.1 3.68,-1.61 6.63,3.92 2.95,5.53 7.13,16.1 10.07,23.1 2.95,7 4.67,10.44 5.66,19.78 0.98,9.34 1.23,24.57 -0.62,41.53 -1.84,16.95 -5.77,35.62 -13.39,55.28 -7.62,19.66 -18.92,40.3 -29.34,56.12 -10.42,15.82 -19.97,26.82 -30.66,35.79 -10.69,8.97 -22.52,15.9 -34.12,22.01 -11.61,6.11 -22.98,11.4 -30.99,16.84 -8.01,5.44 -12.66,11.03 -18.81,22.5 -6.14,11.46 -13.78,28.79 -20.86,42.96 -7.09,14.17 -13.61,25.18 -23.27,36.46 -9.65,11.27 -22.44,22.81 -40.27,30.6 -17.83,7.79 -40.71,11.84 -57.48,12.57 -16.77,0.73 -27.44,-1.85 -38.25,-7.26 -10.81,-5.41 -21.77,-13.65 -30.25,-24.79 -8.49,-11.14 -14.51,-25.17 -19.79,-39.18 -5.28,-14 -9.83,-27.98 -7.31,-43.81 2.51,-15.84 12.1,-33.53 24.14,-44.96 12.04,-11.42 26.53,-16.58 43,-15.11 16.46,1.48 34.89,9.58 46.71,16.84 11.82,7.24 17.03,13.63 19.66,15.97 2.63,2.34 2.68,0.62 2.09,-5.32 -0.59,-5.95 -1.82,-16.14 -7.22,-27.71 -5.4,-11.58 -14.97,-24.55 -26.38,-35.86 -11.42,-11.3 -24.69,-20.95 -43.2,-25.22 -18.52,-4.28 -42.29,-3.17 -63.1,0.44 -20.81,3.62 -38.66,9.74 -52.47,15.24 -13.81,5.49 -23.57,10.36 -31.57,13.81 -7.99,3.44 -14.22,5.46 -17.06,5.23 -2.82,-0.23 -2.26,-2.72 -0.17,-8.13 2.09,-5.4 5.7,-13.72 14.75,-20.96 9.05,-7.23 23.55,-13.37 41.73,-19.76 18.19,-6.39 40.05,-13.02 60.05,-15.49 19.99,-2.46 38.12,-0.75 54.95,4.29 16.83,5.03 32.37,13.4 47.14,26.43 14.78,13.02 28.78,30.72 36.63,48.57 7.84,17.85 9.52,35.86 8.93,51.05 -0.59,15.2 -3.47,27.57 -9.59,39.18 -6.11,11.6 -15.47,22.44 -23.91,28.82 -8.43,6.38 -15.95,8.3 -21.96,7.9 -6.02,-0.4 -10.54,-3.11 -12.8,-4.47 -2.26,-1.35 -2.26,-1.35 -2.26,-1.35 0,0 0,0 4.39,-2.17 4.38,-2.16 13.15,-6.48 20.27,-13.35 7.12,-6.86 12.59,-16.26 13.49,-25.19 0.9,-8.92 -2.77,-17.35 -11.07,-25.25 -8.3,-7.91 -21.24,-15.28 -32.46,-18.24 -11.21,-2.95 -20.72,-1.5 -29.67,2.66 -8.94,4.15 -17.34,11 -22.77,20.2 -5.43,9.2 -7.89,20.75 -6.53,32.44 1.36,11.69 6.54,23.52 12.84,34.14 6.31,10.61 13.75,20.02 22.66,27.1 8.9,7.08 19.28,11.82 32.69,12.98 13.4,1.17 29.84,-1.25 44.14,-7.46 14.3,-6.21 26.46,-16.21 36.64,-27.53 10.17,-11.32 18.36,-23.95 25.9,-38.84 7.53,-14.89 14.42,-32.02 17.12,-50.25 2.71,-18.24 1.24,-37.57 -4.61,-59.66 -5.84,-22.09 -16.06,-46.93 -28.18,-68.17 -12.11,-21.24 -26.14,-38.87 -42.82,-54.52 -16.67,-15.65 -36,-29.33 -60.86,-40.79 -24.86,-11.46 -55.25,-20.71 -80.02,-25.18 -24.78,-4.48 -43.96,-4.19 -58.77,-4.44 -14.81,-0.26 -25.26,-1.07 -31.52,-5.49 -6.26,-4.42 -8.32,-12.45 -9.1,-19.6 -0.78,-7.16 -0.29,-13.45 2.46,-13.53z"/>
   <path class="fil8" d="M1491.86 576.96c5.53,-3.85 12.07,-7.71 18.65,-10.65 6.58,-2.94 13.2,-4.96 21.35,-6.71 8.14,-1.75 17.8,-3.22 31.17,-3.39 13.37,-0.17 30.44,0.96 48.42,4.6 17.99,3.64 36.88,9.79 52.74,17 15.86,7.2 28.69,15.47 40.5,25.2 11.81,9.73 22.61,20.92 34.82,37.27 12.21,16.36 25.85,37.87 34.11,57.78 8.27,19.92 11.17,38.24 12.26,55.66 1.1,17.41 0.38,33.92 -3.83,49.97 -4.21,16.05 -11.92,31.63 -25.22,49.15 -13.29,17.51 -32.17,36.94 -51.77,52.18 -19.61,15.24 -39.95,26.29 -54.4,33.44 -14.45,7.15 -23.01,10.39 -28.97,8.32 -5.96,-2.07 -9.32,-9.44 -13.76,-17.07 -4.44,-7.62 -9.97,-15.5 -15.08,-22.21 -5.12,-6.7 -9.81,-12.23 -14.92,-18.6 -5.12,-6.37 -10.65,-13.58 -15.26,-19.61 -4.61,-6.04 -8.29,-10.9 -12.48,-15.17 -4.19,-4.28 -8.88,-7.96 -12.57,-10.56 -3.69,-2.6 -6.37,-4.11 -9.56,-6.71 -3.18,-2.6 -6.87,-6.28 -7.8,-10.47 -0.93,-4.19 0.91,-8.88 2.74,-12.99 1.84,-4.11 3.68,-7.64 7.92,-12.83 4.24,-5.2 10.88,-12.06 17.15,-16.93 6.28,-4.88 12.19,-7.76 16.4,-9.1 4.2,-1.34 6.69,-1.13 8.95,0.9 2.27,2.03 4.31,5.87 5.02,9.7 0.7,3.82 0.07,7.62 -1.01,11.88 -1.08,4.26 -2.6,8.97 -1.97,15.18 0.64,6.2 3.44,13.9 7.63,20.23 4.19,6.32 9.78,11.27 15.77,14.06 5.99,2.78 12.37,3.4 20.92,2.35 8.55,-1.06 19.27,-3.8 28.83,-9.07 9.57,-5.27 17.99,-13.07 24.26,-23.73 6.27,-10.65 10.38,-24.15 12.54,-35.7 2.15,-11.55 2.35,-21.14 0.37,-31.32 -1.98,-10.17 -6.13,-20.94 -12.62,-31.23 -6.48,-10.29 -15.29,-20.11 -24.61,-28.42 -9.32,-8.3 -19.14,-15.09 -33.26,-19.23 -14.12,-4.15 -32.54,-5.64 -48.58,-5.32 -16.04,0.32 -29.72,2.45 -44.84,7.09 -15.12,4.64 -31.7,11.8 -47.63,20.07 -15.93,8.28 -31.22,17.68 -44.57,25.94 -13.35,8.26 -24.77,15.38 -35.78,23.05 -11,7.66 -21.6,15.88 -28.42,22.41 -6.82,6.54 -9.86,11.39 -6.94,14.15 2.92,2.76 11.81,3.43 18.34,3.52 6.54,0.08 10.73,-0.42 13.9,-2.07 3.18,-1.66 5.33,-4.47 8.55,-8.36 3.21,-3.89 7.49,-8.88 14.6,-15.09 7.11,-6.21 17.06,-13.66 27.89,-20.81 10.83,-7.16 22.54,-14.01 37.07,-21.06 14.53,-7.05 31.87,-14.29 42.2,-18.38 10.34,-4.09 13.65,-5.03 20.59,-6.36 6.93,-1.34 17.49,-3.07 27.53,-3.56 10.04,-0.49 19.56,0.26 28.84,2.47 9.27,2.21 18.31,5.87 27,11.4 8.69,5.53 17.03,12.93 23.18,22.11 6.16,9.19 10.13,20.16 12.64,30.28 2.51,10.11 3.55,19.38 1.24,29.39 -2.31,10.01 -7.96,20.78 -14.86,28.59 -6.91,7.81 -15.06,12.67 -21.8,14.48 -6.75,1.8 -12.08,0.54 -16.56,-0.41 -4.46,-0.97 -8.07,-1.63 -9.33,-5.29 -1.26,-3.65 -0.19,-10.3 0.44,-18.17 0.63,-7.87 0.8,-16.97 -1.63,-23.92 -2.43,-6.96 -7.47,-11.76 -12.75,-15.09 -5.28,-3.33 -10.8,-5.18 -17.36,-5.38 -6.55,-0.19 -14.15,1.29 -21.64,4.32 -7.48,3.03 -14.85,7.61 -21.33,13.67 -6.47,6.05 -12.05,13.57 -15.66,19.07 -3.61,5.51 -5.25,9 -6.3,12.82 -1.04,3.82 -1.47,7.98 -0.27,11.65 1.21,3.67 4.06,6.86 16.3,15.57 12.23,8.72 33.86,22.97 47.43,34.37 13.58,11.4 19.11,19.94 24.98,28.57 5.86,8.64 12.07,17.35 16.84,22.59 4.77,5.24 8.11,6.99 13.21,7.02 5.1,0.03 11.96,-1.67 24.45,-7.47 12.48,-5.8 30.59,-15.69 46.06,-27.45 15.47,-11.75 28.31,-25.37 39.72,-40.14 11.41,-14.78 21.38,-30.71 27.21,-46.22 5.82,-15.52 7.5,-30.6 5.19,-49.23 -2.32,-18.63 -8.62,-40.81 -16.05,-58.56 -7.42,-17.76 -15.98,-31.08 -27.75,-44.77 -11.76,-13.68 -26.73,-27.71 -38.34,-37.02 -11.61,-9.3 -19.86,-13.87 -31.38,-18.45 -11.52,-4.58 -26.31,-9.15 -39.12,-12 -12.82,-2.86 -23.64,-3.98 -38.23,-3.62 -14.59,0.36 -32.94,2.21 -51.31,4.34 -18.37,2.12 -36.75,4.52 -44.25,5.17 -7.5,0.66 -4.12,-0.42 -0.17,-2.89 3.96,-2.48 8.49,-6.33 14.02,-10.19z"/>
   <g>
    <rect class="fil5" x="945.82" y="558.21" width="24.62" height="101.97" rx="12.31" ry="13.6"/>
    <rect class="fil5" transform="matrix(0.162862 -0.162862 0.179855 0.179855 764.487 631.695)" width="106.9" height="400.89" rx="53.45" ry="53.45"/>
    <rect class="fil5" transform="matrix(-0.162862 -0.162862 -0.179855 0.179855 1150.8 631.695)" width="106.9" height="400.89" rx="53.45" ry="53.45"/>
    <path class="fil5" d="M709.12 695.4l0 0c3.39,-5.86 10.96,-7.89 16.82,-4.51l34.22 19.76c5.87,3.38 7.89,10.95 4.51,16.82l0 0c-3.39,5.86 -10.96,7.89 -16.82,4.5l-34.22 -19.75c-5.86,-3.39 -7.89,-10.96 -4.51,-16.82z"/>
    <path class="fil5" d="M1205.79 695.4l0 0c-3.39,-5.86 -10.96,-7.89 -16.82,-4.51l-34.22 19.76c-5.87,3.38 -7.9,10.95 -4.51,16.82l0 0c3.39,5.86 10.96,7.89 16.82,4.5l34.22 -19.75c5.86,-3.39 7.89,-10.96 4.51,-16.82z"/>
   </g>
   <rect class="fil5" x="945.82" y="1057.23" width="24.62" height="101.97" rx="12.31" ry="13.6"/>
   <rect class="fil5" transform="matrix(0.162862 0.162862 0.179855 -0.179855 764.487 1085.71)" width="106.9" height="400.89" rx="53.45" ry="53.45"/>
   <rect class="fil5" transform="matrix(-0.162862 0.162862 -0.179855 -0.179855 1150.8 1085.71)" width="106.9" height="400.89" rx="53.45" ry="53.45"/>
   <path class="fil5" d="M709.12 1022l0 0c3.39,5.87 10.96,7.89 16.82,4.51l34.22 -19.76c5.87,-3.38 7.89,-10.95 4.51,-16.82l0 0c-3.39,-5.86 -10.96,-7.89 -16.82,-4.5l-34.22 19.76c-5.86,3.38 -7.89,10.95 -4.51,16.81z"/>
   <path class="fil5" d="M1205.79 1022l0 0c-3.39,5.87 -10.96,7.89 -16.82,4.51l-34.22 -19.76c-5.87,-3.38 -7.9,-10.95 -4.51,-16.82l0 0c3.39,-5.86 10.96,-7.89 16.82,-4.5l34.22 19.76c5.86,3.38 7.89,10.95 4.51,16.81z"/>
   <rect class="fil5" transform="matrix(-6.11373E-15 0.230322 -0.254354 -6.73498E-15 1257.95 846.393)" width="106.9" height="400.89" rx="53.45" ry="53.45"/>
   <rect class="fil5" transform="matrix(-6.11373E-15 0.230322 -0.254354 -6.73498E-15 758.924 846.393)" width="106.9" height="400.89" rx="53.45" ry="53.45"/>
   <path class="fil5" d="M328.2 948.28c-2.08,0.48 -3.11,1.15 -3.8,5.77 -0.7,4.62 -1.06,13.19 -1.23,18.53 -0.18,5.35 -0.17,7.46 1.7,8.4 1.86,0.93 5.58,0.68 8.32,-2.27 2.75,-2.95 4.53,-8.6 5.92,-13.28 1.39,-4.68 2.4,-8.39 1.9,-11.26 -0.5,-2.87 -2.49,-4.9 -5.05,-5.78 -2.57,-0.87 -5.69,-0.59 -7.76,-0.11z"/>
   <path class="fil5" d="M340.28 910.39c-1.55,2.82 -3.91,7.11 -6.07,12.61 -2.17,5.49 -4.14,12.19 -4.86,16.11 -0.72,3.92 -0.19,5.08 1.48,6.58 1.68,1.5 4.51,3.34 6.46,4.51 1.95,1.17 3.02,1.66 4.17,0.43 1.15,-1.24 2.38,-4.21 4.47,-9.05 2.1,-4.83 5.06,-11.54 6.89,-15.86 1.84,-4.33 2.54,-6.27 2.14,-8.54 -0.4,-2.27 -1.9,-4.87 -3.67,-6.85 -1.77,-1.99 -3.81,-3.36 -5.18,-4.17 -1.37,-0.81 -2.09,-1.04 -2.81,-0.49 -0.73,0.55 -1.47,1.9 -3.02,4.72z"/>
   <path class="fil5" d="M367.86 871.02c-1.86,0.54 -4.72,2.43 -8.54,6.46 -3.83,4.03 -8.64,10.2 -11.34,14.62 -2.71,4.42 -3.31,7.08 -3.49,9.33 -0.19,2.25 0.04,4.09 1.21,5.11 1.17,1.01 3.27,1.21 5.1,1.68 1.83,0.46 3.38,1.2 4.73,1.23 1.35,0.03 2.49,-0.66 3.76,-1.96 1.28,-1.3 2.69,-3.22 4.42,-5.47 1.72,-2.25 3.77,-4.83 5.5,-7.13 1.73,-2.3 3.15,-4.32 4.35,-6.45 1.19,-2.13 2.17,-4.38 1.78,-7.12 -0.39,-2.75 -2.16,-6 -3.47,-8.02 -1.3,-2.03 -2.16,-2.83 -4.01,-2.28z"/>
   <path class="fil5" d="M405.44 838.16c-2.28,-1.12 -5.16,-0.27 -8.32,1.67 -3.16,1.94 -6.61,4.97 -9.46,8.04 -2.85,3.06 -5.11,6.16 -6.89,9.07 -1.78,2.9 -3.09,5.61 -3.62,7.53 -0.53,1.92 -0.28,3.04 0.35,4.42 0.63,1.39 1.64,3.04 2.45,4.32 0.81,1.29 1.42,2.21 2.63,1.97 1.2,-0.24 3.01,-1.65 4.62,-2.79 1.62,-1.15 3.04,-2.04 5.13,-2.93 2.08,-0.9 4.83,-1.81 7.39,-3.54 2.55,-1.73 4.91,-4.3 6.73,-6.36 1.82,-2.06 3.1,-3.63 4.04,-4.81 0.92,-1.18 1.5,-1.99 1.54,-3.47 0.04,-1.48 -0.45,-3.63 -1.54,-6.26 -1.09,-2.63 -2.77,-5.73 -5.05,-6.86z"/>
   <path class="fil5" d="M425.32 821.76c-4.3,2.56 -9.2,6.75 -11.89,9.22 -2.69,2.47 -3.17,3.24 -2.45,5.31 0.71,2.07 2.63,5.45 4.59,7.67 1.96,2.22 3.97,3.29 6.2,3.72 2.22,0.43 4.66,0.21 7.78,-1.66 3.11,-1.88 6.9,-5.4 9.42,-8.02 2.51,-2.63 3.77,-4.35 3.9,-6.61 0.13,-2.26 -0.87,-5.06 -2.03,-7.51 -1.15,-2.44 -2.48,-4.53 -4.99,-5.09 -2.52,-0.57 -6.23,0.4 -10.53,2.97z"/>
   <path class="fil5" d="M478.13 801.72c-2.04,-0.67 -5.13,0.08 -9.13,1 -3.99,0.93 -8.88,2.02 -12.63,3.35 -3.75,1.34 -6.36,2.91 -8.49,4.94 -2.13,2.02 -3.78,4.5 -4.03,7.69 -0.25,3.19 0.9,7.11 3.65,9.77 2.74,2.66 7.09,4.06 12.17,2.36 5.07,-1.7 10.88,-6.5 14.57,-9.37 3.68,-2.86 5.24,-3.79 6.2,-5.95 0.97,-2.16 1.34,-5.55 1.03,-8.29 -0.31,-2.74 -1.29,-4.83 -3.34,-5.5z"/>
   <path class="fil5" d="M498.22 797.6c-2.41,-0.82 -5.11,-0.8 -7.41,-0.44 -2.3,0.35 -4.2,1.04 -5.31,2.39 -1.12,1.36 -1.46,3.37 -1.44,5.28 0.03,1.9 0.41,3.69 0.65,5.26 0.25,1.56 0.35,2.89 0.4,3.92 0.05,1.02 0.06,1.72 2.08,2.73 2.02,1 6.06,2.29 9.41,2.17 3.35,-0.11 6.01,-1.65 7.27,-4.74 1.26,-3.09 1.13,-7.74 0,-10.91 -1.12,-3.16 -3.24,-4.83 -5.65,-5.66z"/>
   <path class="fil5" d="M518.69 794.95c-1.3,0.68 -2.88,1.96 -3.99,4.04 -1.12,2.09 -1.77,4.97 -2.05,8.03 -0.29,3.06 -0.21,6.3 1.04,8.38 1.25,2.09 3.68,3.02 5.71,3.12 2.03,0.09 3.67,-0.66 5.2,-1.96 1.54,-1.31 2.97,-3.17 3.56,-5.69 0.58,-2.51 0.32,-5.67 -0.11,-8.17 -0.43,-2.5 -1.03,-4.35 -2.06,-5.67 -1.04,-1.32 -2.49,-2.11 -3.73,-2.47 -1.25,-0.36 -2.27,-0.29 -3.57,0.39z"/>
   <path class="fil5" d="M1361.64 806.24c-5.12,-0.08 -12.06,0.19 -17.51,0.71 -5.45,0.51 -9.39,1.29 -12.4,1.97 -3.01,0.68 -5.08,1.28 -6.97,3.12 -1.9,1.84 -3.62,4.92 -0.1,6.8 3.52,1.88 12.27,2.57 21.16,3.19 8.88,0.61 17.9,1.18 24.82,0.92 6.92,-0.26 11.76,-1.33 15.4,-2.79 3.64,-1.46 6.09,-3.31 5.51,-5.08 -0.57,-1.76 -4.17,-3.46 -7.71,-4.77 -3.55,-1.31 -7.04,-2.24 -10.43,-2.91 -3.39,-0.67 -6.67,-1.09 -11.77,-1.16z"/>
   <path class="fil5" d="M218.72 745.34c-5.12,9.39 -10.18,19.24 -14.46,33.6 -4.27,14.36 -7.78,33.22 -10.01,44.28 -2.24,11.05 -3.21,14.29 -5.9,16.56 -2.69,2.27 -7.1,3.56 -9.34,4.21 -2.23,0.65 -2.3,0.65 -2.46,-1.88 -0.16,-2.53 -0.42,-7.58 0.39,-16.75 0.81,-9.18 2.69,-22.46 6.09,-36.04 3.41,-13.59 8.33,-27.46 13.29,-39.77 4.96,-12.32 9.95,-23.08 16.92,-34.45 6.97,-11.38 15.91,-23.37 22.53,-31.51 6.61,-8.13 10.89,-12.41 13.87,-14.45 2.98,-2.05 4.66,-1.85 6.87,-0.65 2.2,1.2 4.93,3.4 6.45,5.25 1.52,1.85 1.85,3.34 1.42,5.41 -0.42,2.08 -1.58,4.73 -4.5,8.85 -2.92,4.12 -7.58,9.69 -12.15,14.94 -4.57,5.25 -9.05,10.18 -13.88,17.11 -4.83,6.94 -10.01,15.88 -15.13,25.29z"/>
   <path class="fil5" d="M289.2 640.31c-1.97,-0.08 -5.01,1.27 -8.9,3.61 -3.9,2.34 -8.63,5.66 -12.55,8.99 -3.92,3.33 -7.02,6.65 -8.17,9.95 -1.16,3.3 -0.37,6.57 0.65,9.33 1.01,2.76 2.25,5.02 4.28,5.75 2.03,0.73 4.85,-0.06 9.02,-2.34 4.17,-2.28 9.7,-6.06 13.95,-9.75 4.26,-3.7 7.25,-7.3 8.49,-9.98 1.24,-2.68 0.73,-4.43 -0.06,-6.34 -0.79,-1.92 -1.86,-4.01 -2.85,-5.81 -0.98,-1.8 -1.89,-3.33 -3.86,-3.41z"/>
   <path class="fil5" d="M347.99 611.2c-3.89,0.98 -9.17,2.47 -14.84,4.62 -5.66,2.14 -11.69,4.94 -16.93,7.35 -5.24,2.42 -9.67,4.47 -12.47,6.26 -2.79,1.8 -3.94,3.35 -4.16,5.82 -0.23,2.46 0.47,5.86 1.57,8.33 1.09,2.46 2.59,4.01 4.81,4.88 2.22,0.87 5.16,1.08 9.63,-0.97 4.46,-2.04 10.45,-6.34 15.16,-9.58 4.71,-3.24 8.15,-5.43 11.87,-7.38 3.72,-1.95 7.7,-3.64 11.87,-5.29 4.16,-1.64 8.5,-3.24 11.15,-4.98 2.64,-1.75 3.59,-3.64 3.57,-5.51 -0.03,-1.87 -1.03,-3.72 -3.25,-4.62 -2.22,-0.89 -5.66,-0.85 -8.63,-0.6 -2.96,0.25 -5.46,0.7 -9.35,1.67z"/>
   <path class="fil5" d="M1429.64 635.64c-3.2,1.89 -7.65,4.85 -10.13,8.04 -2.48,3.18 -2.99,6.6 -2.59,9.42 0.4,2.81 1.7,5.04 4.56,5.52 2.87,0.48 7.3,-0.78 11.35,-2.68 4.05,-1.9 7.71,-4.45 10.13,-7 2.43,-2.55 3.62,-5.1 3.39,-8.04 -0.22,-2.93 -1.88,-6.26 -3.72,-7.79 -1.85,-1.52 -3.88,-1.25 -5.87,-0.71 -1.99,0.54 -3.93,1.35 -7.12,3.24z"/>
   <path class="fil5" d="M1485.49 610.78c3.74,-2.94 11.19,-6.51 17.9,-9.08 6.7,-2.58 12.66,-4.16 17.71,-5.03 5.05,-0.87 9.2,-1.03 12.05,0.31 2.84,1.35 4.37,4.2 4.1,7.69 -0.27,3.5 -2.33,7.63 -5.81,9.95 -3.49,2.31 -8.37,2.79 -13.09,3.23 -4.72,0.44 -9.25,0.82 -13.05,1.03 -3.79,0.2 -6.84,0.23 -9.89,0.75 -3.05,0.52 -6.11,1.52 -8.4,1.39 -2.29,-0.13 -3.81,-1.4 -4.55,-3.19 -0.75,-1.8 -0.71,-4.11 3.03,-7.05z"/>
   <path class="fil5" d="M1547.39 591.87c3.2,-1.82 8.5,-3.14 17.23,-2.97 8.72,0.16 20.87,1.8 30.89,3.49 10.01,1.69 17.88,3.44 26.26,6.15 8.38,2.72 17.26,6.39 25.72,10.57 8.45,4.18 16.48,8.85 22.54,13.58 6.05,4.73 10.12,9.52 12.26,12.43 2.13,2.91 2.34,3.94 0.78,4.82 -1.55,0.88 -4.87,1.61 -7.18,1.11 -2.31,-0.51 -3.62,-2.27 -5.41,-4.15 -1.8,-1.88 -4.1,-3.87 -8.65,-6.38 -4.56,-2.51 -11.38,-5.52 -17.77,-7.92 -6.39,-2.39 -12.35,-4.16 -17.25,-5.36 -4.89,-1.2 -8.72,-1.82 -12.04,-2.73 -3.32,-0.91 -6.13,-2.11 -7.94,-3.01 -1.81,-0.91 -2.63,-1.51 -3.39,-2.24 -0.76,-0.73 -1.47,-1.58 -2.88,-1.89 -1.4,-0.3 -3.5,-0.07 -5.45,0.71 -1.96,0.79 -3.76,2.12 -6.22,2.27 -2.45,0.15 -5.56,-0.89 -8.08,-1.87 -2.52,-0.98 -4.45,-1.91 -6.13,-2.46 -1.69,-0.56 -3.13,-0.74 -5.55,0.09 -2.41,0.82 -5.81,2.65 -8.83,3.48 -3.03,0.84 -5.69,0.7 -8.19,-0.03 -2.51,-0.73 -4.85,-2.03 -6.5,-3.99 -1.66,-1.97 -2.62,-4.59 -2.56,-7.07 0.06,-2.48 1.15,-4.81 4.34,-6.63z"/>
   <path class="fil5" d="M1545.16 694.97c-5.87,0.97 -13.78,2.8 -20.91,5.55 -7.13,2.76 -13.49,6.44 -18.36,9.65 -4.87,3.22 -8.24,5.96 -10.25,7.89 -2.02,1.93 -2.68,3.06 -2.96,5.4 -0.28,2.34 -0.19,5.88 1.85,7.29 2.04,1.4 6.03,0.67 10,-0.29 3.98,-0.95 7.95,-2.13 11.1,-3.8 3.14,-1.67 5.47,-3.83 7.04,-5.53 1.58,-1.69 2.39,-2.93 4.72,-3.65 2.33,-0.72 6.18,-0.92 11.68,-2.28 5.51,-1.35 12.67,-3.85 19.04,-5.36 6.37,-1.5 11.94,-2 15.57,-3.31 3.63,-1.31 5.32,-3.41 5.15,-6.09 -0.18,-2.68 -2.22,-5.93 -5.88,-7.14 -3.67,-1.21 -8.96,-0.38 -13.52,0.1 -4.56,0.48 -8.4,0.6 -14.27,1.57z"/>
   <path class="fil5" d="M1189.98 411.51c1.85,-2.4 4.08,-5.04 6.36,-6.91 2.28,-1.87 4.6,-2.97 6.78,-2.95 2.19,0.02 4.23,1.15 5.67,3.24 1.44,2.1 2.26,5.16 2.06,7.94 -0.21,2.78 -1.46,5.29 -3.73,7.28 -2.27,1.98 -5.57,3.46 -8.43,5.07 -2.87,1.62 -5.3,3.38 -7.72,5.91 -2.43,2.53 -4.86,5.83 -7.26,8.81 -2.4,2.98 -4.77,5.64 -6.76,7.24 -1.99,1.59 -3.59,2.13 -5.19,1.97 -1.61,-0.16 -3.22,-1.02 -4.18,-2.34 -0.96,-1.33 -1.28,-3.12 0.57,-6.26 1.86,-3.15 5.89,-7.64 9.09,-11.58 3.2,-3.93 5.58,-7.31 7.5,-10.09 1.92,-2.77 3.39,-4.93 5.24,-7.33z"/>
   <path class="fil5" d="M1222.02 383.42c3.1,-2.56 8.6,-6.54 15.5,-10.74 6.9,-4.21 15.19,-8.64 22.65,-12.36 7.47,-3.73 14.12,-6.76 19.37,-8.92 5.25,-2.16 9.11,-3.45 12.14,-4.03 3.03,-0.59 5.23,-0.46 6.79,-0.04 1.57,0.42 2.5,1.12 3.33,0.96 0.83,-0.16 1.55,-1.18 2.91,-2.05 1.35,-0.86 3.32,-1.58 6.44,-2.17 3.11,-0.59 7.36,-1.05 10.67,-0.86 3.31,0.18 5.67,1.01 7.32,2.48 1.64,1.46 2.56,3.55 2.78,5.96 0.23,2.41 -0.25,5.13 -1.45,7.24 -1.2,2.11 -3.13,3.62 -5.93,4.62 -2.79,1 -6.45,1.51 -9.2,1.47 -2.75,-0.05 -4.6,-0.64 -6.14,-0.77 -1.55,-0.12 -2.8,0.23 -6.24,1.51 -3.44,1.27 -9.07,3.48 -14.9,5.41 -5.84,1.93 -11.88,3.58 -17.08,5.38 -5.21,1.8 -9.6,3.74 -14.43,6.54 -4.83,2.79 -10.11,6.43 -14.43,9.22 -4.31,2.79 -7.66,4.73 -10.26,5.99 -2.6,1.27 -4.46,1.86 -6.15,1.64 -1.69,-0.21 -3.21,-1.24 -4.42,-2.68 -1.21,-1.44 -2.11,-3.28 -2.68,-4.85 -0.58,-1.56 -0.83,-2.84 -0.6,-4.04 0.22,-1.21 0.91,-2.35 4.01,-4.91z"/>
   <path class="fil5" d="M1344.69 342.45c2.67,0.33 6.43,1.1 8.69,2.79 2.25,1.69 3,4.29 2.92,7.06 -0.09,2.77 -1.02,5.7 -2.75,7.97 -1.73,2.28 -4.26,3.89 -6.81,4.1 -2.55,0.21 -5.12,-0.99 -7.05,-2.98 -1.92,-1.99 -3.2,-4.76 -3.84,-7.04 -0.65,-2.29 -0.65,-4.08 -0.04,-6 0.61,-1.92 1.82,-3.97 3.22,-5.05 1.4,-1.07 2.99,-1.18 5.66,-0.85z"/>
   <path class="fil5" d="M1370.98 345.06c2.68,0.33 6.44,1.1 8.69,2.79 2.26,1.68 3.01,4.29 2.92,7.06 -0.08,2.76 -1.01,5.7 -2.74,7.97 -1.73,2.28 -4.26,3.89 -6.82,4.1 -2.55,0.2 -5.12,-1 -7.04,-2.98 -1.92,-1.99 -3.2,-4.77 -3.84,-7.05 -0.65,-2.28 -0.65,-4.07 -0.04,-5.99 0.6,-1.92 1.82,-3.97 3.22,-5.05 1.4,-1.08 2.98,-1.18 5.65,-0.85z"/>
   <path class="fil5" d="M1276.46 471.32c1.72,-2 4.34,-4.58 8.63,-7.4 4.29,-2.81 10.24,-5.85 14.06,-7.64 3.81,-1.78 5.49,-2.31 7.06,-2.73 1.56,-0.42 3.01,-0.74 4.48,-0.57 1.46,0.17 2.93,0.84 3.6,2.25 0.68,1.42 0.54,3.6 -0.12,5.66 -0.65,2.05 -1.83,3.99 -4.88,6.6 -3.06,2.61 -7.99,5.88 -11.78,8.44 -3.79,2.56 -6.44,4.4 -9.09,6.12 -2.64,1.73 -5.29,3.34 -7.06,4.37 -1.77,1.02 -2.66,1.47 -4.07,1.7 -1.42,0.23 -3.34,0.25 -4.36,-0.96 -1.01,-1.21 -1.13,-3.64 -0.94,-5.68 0.18,-2.03 0.65,-3.68 1.29,-5.21 0.65,-1.53 1.46,-2.95 3.18,-4.95z"/>
   <path class="fil5" d="M1753 1066.34c-3.99,-1.87 -8.53,-3.69 -12.26,-4.82 -3.74,-1.12 -6.67,-1.56 -9.08,-1.54 -2.4,0.02 -4.28,0.49 -6.3,1.03 -2.02,0.54 -4.18,1.13 -4.83,3.1 -0.65,1.97 0.22,5.3 1.84,7.61 1.61,2.31 3.98,3.6 7.33,5.23 3.35,1.63 7.7,3.61 12.21,5.84 4.51,2.23 9.2,4.71 13.82,7.81 4.61,3.09 9.14,6.8 13.2,10.53 4.05,3.72 7.62,7.46 10.33,10.67 2.7,3.21 4.53,5.89 7.06,7.79 2.53,1.91 5.75,3.03 8,2.47 2.25,-0.56 3.53,-2.81 3.63,-6.03 0.1,-3.22 -0.98,-7.41 -3.12,-11.84 -2.15,-4.43 -5.35,-9.09 -9.08,-13.36 -3.72,-4.27 -7.96,-8.14 -11.69,-11.2 -3.73,-3.07 -6.95,-5.31 -10.29,-7.4 -3.33,-2.08 -6.78,-4.02 -10.77,-5.89z"/>
   <path class="fil5" d="M1807.63 1131.67c-1.75,-0.9 -3.68,-1.25 -5.44,-0.42 -1.76,0.83 -3.35,2.84 -3.99,5 -0.63,2.15 -0.32,4.45 0.46,6.8 0.77,2.34 2,4.73 3,7.11 1,2.39 1.76,4.77 2.62,7.31 0.86,2.53 1.81,5.22 2.31,8.53 0.5,3.3 0.57,7.22 -0.04,10.83 -0.6,3.6 -1.87,6.89 -2.95,10.2 -1.08,3.32 -1.98,6.67 -2.18,9.41 -0.2,2.74 0.29,4.88 1.64,6.52 1.34,1.65 3.54,2.8 5.51,2.91 1.97,0.11 3.72,-0.82 5.28,-2.71 1.56,-1.88 2.95,-4.72 3.72,-6.79 0.78,-2.07 0.95,-3.39 0.67,-4.78 -0.28,-1.38 -1.02,-2.84 -1.55,-4.19 -0.53,-1.35 -0.84,-2.58 -0.74,-4.2 0.1,-1.63 0.61,-3.63 0.91,-6.18 0.29,-2.55 0.36,-5.65 0.04,-9.44 -0.32,-3.79 -1.02,-8.26 -1.56,-12.84 -0.55,-4.58 -0.96,-9.26 -1.41,-12.48 -0.45,-3.23 -0.94,-5.01 -1.97,-6.62 -1.02,-1.61 -2.58,-3.07 -4.33,-3.97z"/>
   <path class="fil5" d="M1707.93 1248.75c-4.81,-4.88 -11.08,-11.32 -15.68,-15.86 -4.59,-4.55 -7.5,-7.21 -10.54,-8.64 -3.03,-1.42 -6.18,-1.61 -8.75,-0.71 -2.57,0.89 -4.57,2.87 -4.95,5.46 -0.39,2.59 0.83,5.79 2.59,8.9 1.77,3.11 4.07,6.14 7.31,9.28 3.25,3.13 7.44,6.38 12.14,10.74 4.7,4.36 9.92,9.82 14.47,14.96 4.55,5.14 8.43,9.97 11.96,13.89 3.53,3.93 6.72,6.95 9.67,8.66 2.96,1.7 5.69,2.07 7.83,1.28 2.12,-0.79 3.65,-2.75 4.52,-4.77 0.87,-2.02 1.08,-4.1 -0.05,-7.01 -1.12,-2.9 -3.59,-6.64 -6.98,-10.88 -3.4,-4.25 -7.72,-9 -11.55,-13.05 -3.84,-4.04 -7.18,-7.37 -11.99,-12.25z"/>
   <path class="fil5" d="M169.31 1275.55c3.01,3.08 6.46,6.98 9.67,10.09 3.21,3.11 6.19,5.44 8.99,6.33 2.79,0.88 5.42,0.33 6.72,-0.77 1.29,-1.09 1.25,-2.73 0.96,-4.45 -0.29,-1.72 -0.84,-3.52 -2.25,-6 -1.42,-2.49 -3.7,-5.65 -6.35,-8.7 -2.66,-3.05 -5.69,-5.99 -8.96,-9.37 -3.26,-3.39 -6.77,-7.23 -9.11,-10.06 -2.34,-2.84 -3.52,-4.67 -5.11,-6.07 -1.58,-1.39 -3.57,-2.35 -5.56,-2.75 -2,-0.4 -4.01,-0.24 -5.74,1.15 -1.73,1.4 -3.19,4.04 -2.9,6.51 0.29,2.47 2.34,4.78 4.54,7.49 2.21,2.72 4.57,5.84 7.05,8.54 2.47,2.7 5.04,4.97 8.05,8.06z"/>
   <path class="fil5" d="M168.49 1138.13c-3.31,-1.59 -6.79,-2.04 -9.09,-1.54 -2.3,0.5 -3.41,1.95 -4.09,3.59 -0.68,1.63 -0.94,3.45 -0.12,5.73 0.82,2.28 2.72,5.02 4.94,7.51 2.22,2.48 4.77,4.7 7.6,7.51 2.84,2.81 5.96,6.21 8.61,9.52 2.65,3.32 4.83,6.55 7.48,9.22 2.65,2.66 5.78,4.76 8.45,5.65 2.67,0.89 4.89,0.59 6.59,-0.29 1.71,-0.88 2.89,-2.32 3.36,-3.78 0.47,-1.46 0.21,-2.94 -0.93,-5.42 -1.14,-2.47 -3.17,-5.95 -5.8,-9.63 -2.64,-3.68 -5.88,-7.57 -8.89,-11.11 -3,-3.54 -5.76,-6.73 -8.71,-9.69 -2.95,-2.96 -6.09,-5.69 -9.4,-7.27z"/>
   <path class="fil8" d="M957.45 481.09c208.55,0 377.62,169.06 377.62,377.61 0,208.55 -169.07,377.62 -377.62,377.62 -208.55,0 -377.61,-169.07 -377.61,-377.62 0,-208.55 169.06,-377.61 377.61,-377.61zm0 24.73c194.9,0 352.89,157.99 352.89,352.88 0,194.9 -157.99,352.89 -352.89,352.89 -194.89,0 -352.88,-157.99 -352.88,-352.89 0,-194.89 157.99,-352.88 352.88,-352.88z"/>
   <path class="fil5" d="M667.72 1126.21c6.12,6.18 16.08,19.23 25.46,28.2 9.37,8.97 18.16,13.85 26.34,18.14 8.19,4.28 15.77,7.97 19.58,11.03 3.8,3.05 3.82,5.46 3.24,8.2 -0.59,2.74 -1.79,5.81 -8.01,4.8 -6.22,-1.02 -17.47,-6.12 -29.74,-13.34 -12.27,-7.23 -25.55,-16.57 -34.06,-25.28 -8.52,-8.72 -12.26,-16.8 -14.47,-21.91 -2.2,-5.1 -2.86,-7.24 -2.44,-9.18 0.42,-1.95 1.92,-3.71 3.82,-4.94 1.89,-1.22 4.16,-1.91 10.28,4.28z"/>
   <path class="fil5" d="M638.63 1089.95c-2.42,-0.83 -5.12,-0.81 -7.42,-0.45 -2.3,0.36 -4.2,1.04 -5.54,4.36 -1.34,3.31 -2.13,9.26 -0.03,12.83 2.1,3.58 7.08,4.78 10.9,4.61 3.81,-0.16 6.47,-1.69 7.73,-4.79 1.26,-3.09 1.13,-7.74 0.01,-10.91 -1.13,-3.16 -3.25,-4.83 -5.65,-5.65z"/>
   <path class="fil5" d="M647.77 1101.07c-2.41,-0.83 -5.11,-0.81 -7.41,-0.45 -2.3,0.36 -4.2,1.04 -5.54,4.36 -1.34,3.32 -2.13,9.26 -0.03,12.83 2.09,3.58 7.07,4.78 10.89,4.61 3.82,-0.16 6.47,-1.69 7.73,-4.79 1.27,-3.09 1.13,-7.74 0.01,-10.91 -1.13,-3.16 -3.24,-4.83 -5.65,-5.65z"/>
   <path class="fil5" d="M350.17 1244.82c-1.7,-1.81 -4.26,-4 -6.49,-5.5 -2.23,-1.5 -4.13,-2.3 -5.64,-2.85 -1.52,-0.55 -2.64,-0.84 -4.59,-0.19 -1.95,0.65 -4.72,2.24 -4.85,4.78 -0.13,2.54 2.38,6.02 4.98,9.5 2.61,3.48 5.29,6.96 7.84,9.15 2.55,2.19 4.97,3.09 7.24,3.31 2.28,0.21 4.43,-0.25 5.48,-1.7 1.06,-1.45 1.03,-3.87 0.74,-6.01 -0.28,-2.15 -0.82,-4 -1.5,-5.64 -0.69,-1.63 -1.52,-3.05 -3.21,-4.85z"/>
   <path class="fil5" d="M1333.84 1083.76c-4.81,-4.88 -11.09,-11.31 -15.68,-15.86 -4.6,-4.55 -7.51,-7.21 -10.54,-8.63 -3.03,-1.43 -6.18,-1.62 -8.75,-0.72 -2.58,0.9 -4.57,2.88 -4.96,5.47 -0.39,2.58 0.83,5.78 2.6,8.89 1.76,3.12 4.06,6.14 7.31,9.28 3.24,3.14 7.43,6.39 12.14,10.75 4.7,4.35 9.92,9.81 14.47,14.96 4.55,5.14 8.42,9.96 11.96,13.89 3.53,3.92 6.71,6.95 9.67,8.65 2.96,1.7 5.69,2.08 7.82,1.29 2.13,-0.79 3.66,-2.75 4.53,-4.77 0.87,-2.02 1.07,-4.11 -0.05,-7.01 -1.13,-2.91 -3.59,-6.64 -6.99,-10.89 -3.39,-4.24 -7.72,-9 -11.55,-13.04 -3.83,-4.05 -7.18,-7.38 -11.98,-12.26z"/>
   <path class="fil5" d="M1329.13 1149.16c-4.81,-4.88 -11.08,-11.31 -15.68,-15.86 -4.59,-4.55 -7.51,-7.21 -10.54,-8.63 -3.03,-1.43 -6.18,-1.62 -8.75,-0.72 -2.57,0.9 -4.57,2.88 -4.95,5.46 -0.39,2.59 0.83,5.79 2.59,8.9 1.76,3.12 4.07,6.14 7.31,9.28 3.25,3.14 7.43,6.39 12.14,10.75 4.7,4.35 9.92,9.81 14.47,14.96 4.55,5.14 8.43,9.96 11.96,13.89 3.53,3.92 6.71,6.95 9.67,8.65 2.96,1.7 5.69,2.08 7.82,1.29 2.13,-0.79 3.66,-2.75 4.53,-4.77 0.87,-2.02 1.08,-4.11 -0.05,-7.01 -1.13,-2.91 -3.59,-6.64 -6.98,-10.89 -3.4,-4.24 -7.72,-9 -11.55,-13.04 -3.84,-4.05 -7.18,-7.38 -11.99,-12.26z"/>
   <path class="fil5" d="M995.12 62.42c-0.08,5.2 -0.57,13.75 -1.07,20.49 -0.5,6.74 -1.02,11.66 -1.88,16.49 -0.86,4.82 -2.06,9.53 -4.29,11.99 -2.23,2.46 -5.49,2.67 -7.1,-0.5 -1.61,-3.17 -1.57,-9.72 -1.25,-17.2 0.33,-7.48 0.94,-15.9 1.3,-21.78 0.36,-5.88 0.46,-9.22 0.79,-12.08 0.32,-2.86 0.86,-5.24 1.91,-7 1.05,-1.76 2.62,-2.9 4.54,-2.68 1.92,0.21 4.21,1.79 5.51,3.51 1.3,1.71 1.63,3.56 1.54,8.76z"/>
   <path class="fil5" d="M1025.01 179.9c-0.69,6.92 -1.84,17.4 -3.37,30.61 -1.53,13.22 -3.43,29.17 -5.16,42.17 -1.72,13 -3.26,23.04 -4.56,29.73 -1.3,6.68 -2.34,10.01 -3.74,12.55 -1.39,2.54 -3.13,4.3 -5.68,4.45 -2.56,0.14 -5.92,-1.32 -8.16,-3.68 -2.26,-2.36 -3.4,-5.63 -3.7,-9.45 -0.3,-3.83 0.24,-8.21 1.57,-16.28 1.33,-8.07 3.45,-19.84 5.44,-33.3 1.99,-13.47 3.84,-28.63 5.66,-39.97 1.82,-11.34 3.6,-18.85 5.09,-24.04 1.48,-5.2 2.66,-8.08 4.51,-10.01 1.83,-1.94 4.33,-2.92 6.65,-2.16 2.31,0.75 4.44,3.25 5.4,6.17 0.95,2.93 0.73,6.29 0.05,13.21z"/>
   <path class="fil5" d="M1138.36 320.24c-2.13,3.24 -4.64,5.81 -7.05,6.58 -2.41,0.77 -4.71,-0.26 -5.94,-2.39 -1.22,-2.13 -1.35,-5.35 -0.39,-9.42 0.97,-4.08 3.05,-8.99 5.26,-13.29 2.22,-4.3 4.57,-7.98 6.4,-10.94 1.82,-2.96 3.13,-5.2 4.93,-6.13 1.8,-0.93 4.1,-0.55 5.41,0.52 1.32,1.06 1.65,2.79 0.98,6.91 -0.66,4.13 -2.32,10.63 -4.03,15.83 -1.7,5.2 -3.45,9.09 -5.57,12.33z"/>
   <path class="fil5" d="M1197.24 111.82c-2.15,7.71 -5.88,20.06 -9.58,31.38 -3.7,11.32 -7.36,21.61 -10.76,31.23 -3.4,9.61 -6.52,18.55 -9.16,26.37 -2.64,7.82 -4.79,14.53 -7.65,20.81 -2.86,6.28 -6.44,12.12 -9.47,14.57 -3.04,2.45 -5.53,1.51 -6.39,-1.42 -0.86,-2.94 -0.09,-7.87 2.13,-16.96 2.22,-9.1 5.89,-22.36 9.49,-35.09 3.6,-12.75 7.13,-24.97 10.54,-36.27 3.41,-11.3 6.71,-21.68 9.56,-29.78 2.85,-8.11 5.25,-13.93 7.23,-17.86 1.99,-3.93 3.56,-5.97 5.43,-6.93 1.86,-0.97 4.01,-0.87 6.05,0.32 2.04,1.19 3.96,3.47 4.63,6.15 0.68,2.68 0.1,5.76 -2.05,13.48z"/>
   <path class="fil5" d="M612.93 248.01c-3.82,-7.54 -7.55,-15.97 -7.23,-22.19 0.31,-6.21 4.67,-10.21 9.05,-10.72 4.38,-0.5 8.79,2.49 11.77,7.49 2.99,5 4.56,12.02 7.53,20.77 2.96,8.76 7.31,19.26 11.19,27.85 3.87,8.58 7.27,15.26 10.54,23.14 3.28,7.88 6.44,16.97 9.03,25.2 2.59,8.22 4.62,15.58 6.68,22.49 2.07,6.92 4.18,13.4 6.49,19.1 2.3,5.7 4.81,10.63 5.42,14.65 0.61,4.02 -0.68,7.13 -2.7,6.62 -2.01,-0.51 -4.75,-4.66 -9.97,-12.8 -5.21,-8.14 -12.91,-20.29 -19.21,-33.59 -6.3,-13.3 -11.21,-27.76 -15.47,-39.16 -4.26,-11.39 -7.86,-19.72 -11.62,-27.2 -3.76,-7.48 -7.68,-14.12 -11.5,-21.65z"/>
   <path class="fil5" d="M690.65 340.87c1.4,-2.13 4.09,-4.05 6.66,-4.02 2.57,0.03 5.01,2.01 6.17,4.73 1.16,2.73 1.06,6.21 -0.56,8.16 -1.61,1.95 -4.72,2.37 -7.28,1.77 -2.57,-0.6 -4.6,-2.22 -5.55,-4.2 -0.96,-1.98 -0.85,-4.32 0.56,-6.44z"/>
   <g>
    <path class="fil22" d="M615.24 33.97c-12.24,-0.79 -29.51,-0.23 -44.62,4.71 -15.12,4.95 -28.08,14.29 -38.38,25.92 -10.3,11.64 -17.93,25.56 -22.24,38.05 -4.32,12.49 -5.31,23.54 -5.81,29.07 -0.5,5.52 -0.5,5.52 -4.61,2.17 -4.11,-3.35 -12.32,-10.04 -22.53,-14.61 -10.21,-4.56 -22.41,-7 -33.51,-5.89 -11.1,1.11 -21.09,5.75 -28.34,11.75 -7.26,6 -11.79,13.36 -14.58,20.87 -2.79,7.52 -3.86,15.21 -3.46,23.94 0.4,8.73 2.26,18.51 3.19,23.4 0.93,4.89 0.93,4.89 -1.13,5.9 -2.06,1.02 -6.18,3.05 -8.24,4.06 -2.06,1.02 -2.06,1.02 -2.06,1.02 0,0 0,0 -3.12,-5.08 -3.12,-5.07 -9.36,-15.22 -17.66,-22.94 -8.31,-7.72 -18.68,-13.02 -27.42,-15.09 -8.76,-2.08 -15.89,-0.94 -23.36,3.33 -7.46,4.26 -15.25,11.65 -20.69,18.5 -5.44,6.85 -8.53,13.17 -13.86,17.14 -5.33,3.96 -12.91,5.57 -16.7,6.38 -3.78,0.8 -3.78,0.8 -4.26,3.7 -0.47,2.89 -1.42,8.68 -0.28,13.49 1.13,4.81 4.36,8.65 13.64,10.52 9.28,1.87 24.6,1.79 53.42,1.63 28.82,-0.16 71.12,-0.4 106.62,-0.4 35.49,0 64.18,0.24 93.13,0.29 28.95,0.04 58.15,-0.11 77.35,-0.89 19.19,-0.79 28.38,-2.2 38.97,-6.52 10.59,-4.32 22.6,-11.55 32.27,-20.32 9.68,-8.77 17.03,-19.1 21.76,-32.74 4.73,-13.65 6.83,-30.62 5.74,-46.04 -1.08,-15.43 -5.37,-29.3 -10.76,-40.54 -5.4,-11.24 -11.91,-19.84 -18.64,-26.7 -6.74,-6.85 -13.69,-11.97 -19.25,-15.51 -5.57,-3.55 -9.74,-5.51 -15.43,-7.57 -5.69,-2.06 -12.91,-4.2 -25.15,-5z"/>
    <g style="clip-path:url(#id1)">
     <g>
      <path id="_1_0" class="fil5" d="M468.37 248.21c2.55,-4.71 -2.83,-14.95 -6.14,-22.38 -3.32,-7.44 -4.58,-12.08 -6.8,-14.98 -2.22,-2.9 -5.4,-4.06 -8.22,-3.29 -2.82,0.77 -5.27,3.47 -6.58,6.02 -1.31,2.55 -1.47,4.94 -1.29,8.2 0.19,3.26 0.73,7.4 1.72,12.46 0.97,5.06 2.39,11.05 8.34,14.46 5.95,3.4 16.42,4.21 18.97,-0.49z"/>
     </g>
    </g>
    <path class="fil1" d="M615.24 33.97c-12.24,-0.79 -29.51,-0.23 -44.62,4.71 -15.12,4.95 -28.08,14.29 -38.38,25.92 -10.3,11.64 -17.93,25.56 -22.24,38.05 -4.32,12.49 -5.31,23.54 -5.81,29.07 -0.5,5.52 -0.5,5.52 -4.61,2.17 -4.11,-3.35 -12.32,-10.04 -22.53,-14.61 -10.21,-4.56 -22.41,-7 -33.51,-5.89 -11.1,1.11 -21.09,5.75 -28.34,11.75 -7.26,6 -11.79,13.36 -14.58,20.87 -2.79,7.52 -3.86,15.21 -3.46,23.94 0.4,8.73 2.26,18.51 3.19,23.4 0.93,4.89 0.93,4.89 -1.13,5.9 -2.06,1.02 -6.18,3.05 -8.24,4.06 -2.06,1.02 -2.06,1.02 -2.06,1.02 0,0 0,0 -3.12,-5.08 -3.12,-5.07 -9.36,-15.22 -17.66,-22.94 -8.31,-7.72 -18.68,-13.02 -27.42,-15.09 -8.76,-2.08 -15.89,-0.94 -23.36,3.33 -7.46,4.26 -15.25,11.65 -20.69,18.5 -5.44,6.85 -8.53,13.17 -13.86,17.14 -5.33,3.96 -12.91,5.57 -16.7,6.38 -3.78,0.8 -3.78,0.8 -4.26,3.7 -0.47,2.89 -1.42,8.68 -0.28,13.49 1.13,4.81 4.36,8.65 13.64,10.52 9.28,1.87 24.6,1.79 53.42,1.63 28.82,-0.16 71.12,-0.4 106.62,-0.4 35.49,0 64.18,0.24 93.13,0.29 28.95,0.04 58.15,-0.11 77.35,-0.89 19.19,-0.79 28.38,-2.2 38.97,-6.52 10.59,-4.32 22.6,-11.55 32.27,-20.32 9.68,-8.77 17.03,-19.1 21.76,-32.74 4.73,-13.65 6.83,-30.62 5.74,-46.04 -1.08,-15.43 -5.37,-29.3 -10.76,-40.54 -5.4,-11.24 -11.91,-19.84 -18.64,-26.7 -6.74,-6.85 -13.69,-11.97 -19.25,-15.51 -5.57,-3.55 -9.74,-5.51 -15.43,-7.57 -5.69,-2.06 -12.91,-4.2 -25.15,-5z"/>
    <path class="fil5" d="M626.69 57.81c-4.57,-1.32 -10.01,-2.12 -13.86,-0.46 -3.86,1.66 -6.13,5.78 -5.69,8.53 0.45,2.75 3.62,4.15 7.32,5.45 3.69,1.31 7.92,2.53 13.11,5.44 5.19,2.91 11.35,7.51 16.66,12.85 5.31,5.33 9.76,11.4 13.11,18.05 3.34,6.64 5.57,13.86 6.86,20.61 1.29,6.75 1.64,13.04 1.61,18.67 -0.03,5.62 -0.43,10.59 -0.64,13.74 -0.21,3.14 -0.24,4.47 1.92,5.15 2.16,0.68 6.51,0.7 9.56,-0.37 3.05,-1.06 4.81,-3.2 5.65,-9 0.85,-5.79 0.79,-15.23 -0.03,-24.39 -0.83,-9.17 -2.42,-18.06 -5.03,-25.86 -2.62,-7.79 -6.26,-14.48 -11.08,-20.39 -4.82,-5.9 -10.81,-11.02 -15.58,-14.71 -4.78,-3.7 -8.33,-5.97 -11.97,-8.04 -3.63,-2.07 -7.35,-3.94 -11.92,-5.27z"/>
   </g>
   <path class="fil23" d="M332.72 299.73l4.06 0c3.35,0 6.08,2.73 6.08,6.08l0 7.95 7.95 0c3.35,0 6.08,2.74 6.08,6.08l0 4.06c0,3.35 -2.73,6.09 -6.08,6.09l-7.95 0 0 7.94c0,3.35 -2.73,6.09 -6.08,6.09l-4.06 0c-3.35,0 -6.09,-2.74 -6.09,-6.09l0 -7.94 -7.94 0c-3.35,0 -6.09,-2.74 -6.09,-6.09l0 -4.06c0,-3.34 2.74,-6.08 6.09,-6.08l7.94 0 0 -7.95c0,-3.35 2.74,-6.08 6.09,-6.08z"/>
   <path class="fil23" d="M1523.81 296.42l4.98 0c4.11,0 7.47,3.35 7.47,7.46l0 9.75 9.74 0c4.11,0 7.47,3.35 7.47,7.46l0 4.98c0,4.11 -3.36,7.47 -7.47,7.47l-9.74 0 0 9.74c0,4.11 -3.36,7.47 -7.47,7.47l-4.98 0c-4.11,0 -7.46,-3.36 -7.46,-7.47l0 -9.74 -9.75 0c-4.1,0 -7.46,-3.36 -7.46,-7.47l0 -4.98c0,-4.11 3.36,-7.46 7.46,-7.46l9.75 0 0 -9.75c0,-4.11 3.35,-7.46 7.46,-7.46z"/>
   <path class="fil24" d="M1808.63 429.49c26.04,0 47.15,21.11 47.15,47.15 0,26.04 -21.11,47.15 -47.15,47.15 -26.03,0 -47.14,-21.11 -47.14,-47.15 0,-26.04 21.11,-47.15 47.14,-47.15zm0 26.84c11.22,0 20.31,9.1 20.31,20.31 0,11.22 -9.09,20.31 -20.31,20.31 -11.21,0 -20.3,-9.09 -20.3,-20.31 0,-11.21 9.09,-20.31 20.3,-20.31z"/>
   <path class="fil24" d="M84.29 613.64c26.04,0 47.15,21.11 47.15,47.15 0,26.04 -21.11,47.15 -47.15,47.15 -26.04,0 -47.15,-21.11 -47.15,-47.15 0,-26.04 21.11,-47.15 47.15,-47.15zm0 26.84c11.21,0 20.31,9.09 20.31,20.31 0,11.21 -9.1,20.31 -20.31,20.31 -11.22,0 -20.31,-9.1 -20.31,-20.31 0,-11.22 9.09,-20.31 20.31,-20.31z"/>
   <ellipse class="fil25" cx="76.31" cy="832.98" rx="22.06" ry="22.13"/>
   <ellipse class="fil26" transform="matrix(0.209705 -0.0561903 0.0725749 0.270853 85.5538 915.996)" rx="92.08" ry="78.93"/>
   <ellipse class="fil27" transform="matrix(0.185904 -0.0447199 0.0643379 0.215563 98.4242 1003.11)" rx="92.08" ry="78.93"/>
   <ellipse class="fil24" transform="matrix(0.122282 0.178888 -0.131931 0.0643343 1749.94 584.656)" rx="92.08" ry="78.93"/>
   <ellipse class="fil24" transform="matrix(0.201562 -0.0902725 0.0821253 0.183371 1674.04 531.851)" rx="92.08" ry="78.93"/>
   <ellipse class="fil28" transform="matrix(0.115021 0.145499 -0.135814 0.0852148 1790.43 646.785)" rx="92.08" ry="78.93"/>
   <path class="fil29" d="M1847.63 733.93c1.58,9.55 2.53,23.91 -1.53,29.19 -1.79,2.33 -16.4,3.28 -18.61,2.26 -7.75,-3.56 -7.7,-10.71 -9.97,-24.5 -2.28,-13.78 -4.09,-25.89 4.23,-27.81 8.31,-1.92 23.61,7.09 25.88,20.86z"/>
   <g>
    <path class="fil1 str2" d="M1642.01 1042.8c32.1,-3.73 64.2,-7.47 95.38,-3.06 31.19,4.4 61.46,16.93 81.09,37.23 19.63,20.3 28.61,48.36 26.4,82.49 -2.21,34.12 -15.63,74.29 -36.82,105.32 -21.18,31.02 -50.12,52.89 -79.91,66.91 -29.8,14.03 -60.43,20.2 -90.92,15.58 -30.48,-4.62 -60.8,-20.04 -92.52,-28.47 -31.72,-8.43 -64.83,-9.88 -89.05,-4.78 -24.21,5.09 -39.53,16.74 -74.18,19.52 -34.66,2.78 -88.66,-3.3 -132.68,-17.55 -44.02,-14.25 -78.07,-36.68 -102,-56.27 -23.92,-19.6 -37.73,-36.37 -44.63,-44.75 -6.9,-8.38 -6.9,-8.38 -6.9,-8.38 0,0 0,0 0,0"/>
   </g>
   <path class="fil5" d="M1408.61 811.35c-4.03,-0.63 -6.91,-0.81 -9.03,0.84 -2.13,1.65 -3.51,5.12 -2.37,7.53 1.13,2.41 4.77,3.76 11.19,6.14 6.43,2.38 15.63,5.8 24.39,9.04 8.77,3.25 17.09,6.33 23.51,8.72 6.42,2.38 10.95,4.05 15.43,6.7 4.48,2.65 8.92,6.26 12.55,8.51 3.64,2.25 6.47,3.13 8.97,2 2.49,-1.13 4.64,-4.26 4.52,-7.63 -0.12,-3.37 -2.52,-6.97 -6.64,-9.97 -4.12,-3 -9.97,-5.39 -18.02,-9.1 -8.05,-3.72 -18.31,-8.76 -27.03,-12.3 -8.71,-3.55 -15.88,-5.61 -22.06,-7.18 -6.18,-1.58 -11.37,-2.67 -15.41,-3.3z"/>
   <path class="fil5" d="M1525.07 868.77c-1.65,-2.24 -3.77,-4.15 -6.4,-4.06 -2.63,0.08 -5.77,2.16 -7.44,4.33 -1.68,2.17 -1.9,4.44 -0.38,6.98 1.52,2.55 4.78,5.37 7.49,7 2.72,1.63 4.9,2.06 6.59,0.71 1.69,-1.35 2.91,-4.48 2.93,-7.32 0.02,-2.84 -1.15,-5.4 -2.79,-7.64z"/>
   <path class="fil5" d="M1552.67 897.55c-1.7,-1.81 -4.26,-4 -6.49,-5.5 -2.23,-1.5 -4.13,-2.3 -5.65,-2.85 -1.51,-0.55 -2.64,-0.84 -4.58,-0.19 -1.95,0.65 -4.72,2.24 -4.85,4.78 -0.13,2.53 2.38,6.02 4.98,9.5 2.61,3.48 5.29,6.96 7.84,9.15 2.55,2.19 4.96,3.09 7.24,3.31 2.28,0.21 4.43,-0.25 5.48,-1.7 1.06,-1.45 1.03,-3.88 0.74,-6.01 -0.28,-2.15 -0.82,-4 -1.51,-5.64 -0.68,-1.63 -1.51,-3.05 -3.2,-4.85z"/>
   <path class="fil5" d="M1578.22 936.06c-1.68,-1.79 -3.97,-3.44 -6.51,-3.76 -2.54,-0.34 -5.34,0.65 -6.55,2.76 -1.21,2.1 -0.84,5.32 0.33,9.09 1.17,3.76 3.15,8.07 5.54,13.44 2.39,5.37 5.21,11.79 7.5,18.4 2.3,6.6 4.08,13.39 5.36,18.28 1.28,4.89 2.05,7.88 2.67,10.42 0.61,2.53 1.07,4.59 2.13,6.39 1.05,1.79 2.71,3.32 4.62,3.86 1.9,0.53 4.04,0.08 5.43,-0.86 1.39,-0.94 2.04,-2.37 1.9,-5.38 -0.14,-3.01 -1.06,-7.61 -2.52,-14.18 -1.45,-6.56 -3.44,-15.1 -5.64,-22.96 -2.19,-7.87 -4.59,-15.06 -6.37,-19.93 -1.78,-4.87 -2.93,-7.41 -4.04,-9.64 -1.11,-2.23 -2.17,-4.15 -3.85,-5.93z"/>
   <path class="fil5" d="M1691.98 1063.44c-4.45,1.58 -10.89,4.15 -15.51,6.39 -4.63,2.24 -7.44,4.14 -8.9,7.14 -1.46,2.99 -1.57,7.08 0.29,9 1.86,1.92 5.68,1.66 10.68,0.35 5,-1.31 11.17,-3.68 17.13,-5.92 5.96,-2.25 11.71,-4.36 15.68,-5.82 3.97,-1.46 6.16,-2.27 7.56,-3.76 1.39,-1.49 1.99,-3.66 1.58,-5.48 -0.41,-1.83 -1.83,-3.29 -3.96,-4.3 -2.14,-1.02 -4.99,-1.58 -7.63,-1.56 -2.65,0.02 -5.09,0.62 -7.54,1.21 -2.45,0.58 -4.92,1.17 -9.38,2.75z"/>
   <ellipse class="fil29" cx="1841.91" cy="809.87" rx="15.38" ry="10.96"/>
   <ellipse class="fil28" cx="1851.03" cy="984.44" rx="25.04" ry="25.19"/>
   <g>
    <path class="fil5" d="M853.21 792.88c-23.93,-16.03 -44.75,-32.31 -77.52,-32.31 -30.55,0 -52.39,4.67 -76.62,22.45 -16.9,12.39 -28.93,29.29 -38.59,47.56 -28.14,-14.89 -74.1,-7.13 -100.92,3.53 -33.5,13.32 -60.67,34.72 -78.17,66.15 -16.53,29.68 -19.79,68.79 -11.52,102.7 1.15,4.69 2.16,10.93 3.74,15.65 1.8,5.37 3.41,9.58 5.29,15.18 1.86,5.55 3.83,8.68 6.08,13.3l7.07 13.39c6.14,10.42 13.05,19.62 20.45,29.09 15.73,20.13 40.91,38.42 65.69,44.16 31.52,7.31 39.64,5.25 69.36,2.78 0.21,9.21 9.23,18.73 14,25.85 -17.76,0 -31.21,2.13 -45.38,12.77 -3.69,2.78 -8.22,4.94 -9.53,9.85 -9.39,-6.28 -12.89,-14.7 -35.14,-20.86 -30.96,-8.58 -59.98,6.22 -75.99,32.49 -5.6,9.19 -11.1,32.34 -13.33,43.75 -10.82,55.38 -19.75,110.18 -34.9,164.37 -4.68,16.77 -8.64,32.67 -0.37,48.85 14.67,28.75 41.32,37.55 72.47,34.05 5.43,-0.61 8.52,-2.61 13.11,-4.12 5.42,-1.78 6.59,-2.65 10.62,-5.53l9.69 -7.54c10.01,6.7 15.25,12.5 29.29,15.95 5.11,1.25 9.66,1.99 13.72,2.36l12.26 0c10.93,-1.09 16.8,-4.9 21.16,-4.9 4.14,0 15.3,4.9 28.02,4.9 46.08,0 58.09,-37.16 60.29,-38.78 1.41,16.94 31.03,38.78 57.07,38.78 18.63,0 29.44,-4.9 31.22,-4.89 3.65,0 12.76,3.98 25.16,4.89l9.8 0c6.27,-0.47 13.11,-1.94 20.3,-5.04 4.76,-2.04 16.79,-8.87 17.96,-13.27 4.87,0.41 12.45,11.47 28.62,15.53 5.45,1.38 10.72,2.35 15.97,2.78l12.02 0c3.18,-0.27 6.39,-0.78 9.68,-1.54 2.27,-0.53 3.72,-1.11 5.73,-1.81 9.36,-3.28 6.77,-2.12 16.94,0.53 15.22,3.95 35.8,1.35 48.87,-4.71 4.98,-2.32 11.51,-6.29 15.34,-10.51 2.59,-2.86 1.07,-2.41 4.03,-4.58 6.53,4.37 11.79,9.88 19.82,14.65 12.77,7.58 26.68,7.95 41.22,7.97l0.71 0 0.7 0c7.07,0 17.11,-6.1 21.52,-5.95 5.79,0.2 16.06,5.95 22.63,5.95l0.64 0 0.63 0 0.64 0c12.95,-0.02 25.19,-0.38 37.2,-7.19 7.19,-4.07 12.49,-6.72 16.88,-13.28 3.34,2.24 4.58,4.57 7.96,7.12 11.55,8.68 22.63,12.31 32.47,13.35l12.88 0c12.12,-1.22 20.95,-5.38 24.21,-5.38 4.57,0 11.82,4.12 22.95,5.38l12.89 0c6.31,-0.69 13.51,-2.47 21.7,-5.99 5.95,-2.55 13.62,-7.64 16.76,-12.32 7.46,5 10.27,7.96 19,12.23 10.68,5.23 26.01,6.06 38.54,6.08l0.6 0 0.21 0c4.28,-0.04 6.26,-1.33 10.34,-2.37 15.95,-4.04 16.33,-7.43 25.9,-15.02 8.33,-6.61 6.37,-5.84 10.47,-16.45 9.03,-23.37 7.76,-23.96 4.14,-47.4 -1.52,-9.86 -2.71,-17.31 -4.3,-26.94 -3,-18.11 -5.9,-35.14 -9.52,-52.95 -6.95,-34.14 -13.34,-69.51 -21.09,-102.78 8.94,-13.36 15.75,-15.04 21.04,-36.04 3.3,-13.11 1.46,-27.65 -4.56,-39.69 -4.1,-8.19 -12.13,-15.07 -19.37,-20.48 -10.62,-7.95 -25.45,-10.43 -39.1,-10.43 -6.9,0 -12.75,0.86 -18.31,2.15 2.98,-4.44 6.71,-7.7 9.52,-12.03 20.38,-31.41 20.58,-71.28 6.8,-105.55 -1.81,-4.51 -4.54,-8.44 -5.55,-12.76 12.49,-1.04 27.44,-13.36 34.64,-22.44 29.29,-36.91 10.31,-94.61 -23.7,-122.07 -23.93,-19.33 -55.2,-32.15 -87.39,-32.15 -13.97,0 -33.73,0.95 -45.22,6.46 -2.72,-11.7 -12.58,-24.04 -21.21,-30.48 -16.66,-12.41 -37.13,-15.89 -58.2,-20.41 -22.39,-4.79 -44.85,-10.51 -69.18,-10.51 -7.02,0 -11.38,3.23 -17.26,5.35 -12.28,4.43 -21.94,13.14 -29.04,23.74 -3.83,-2.57 -6.55,-6.01 -9.96,-9.43 -10.48,-10.52 -22.9,-18.24 -36.68,-24.7 -13.26,-6.22 -39.36,-11.63 -64.55,-13.27l-28.5 0c-9.18,0.74 -17.28,2.3 -23.36,4.92 -14.92,6.41 -24.5,12.38 -33.36,26.94 -4.78,7.84 -7.13,11.84 -9.24,20.92z"/>
    <path class="fil8" d="M949.66 912.67l0 -86.09c22.56,5.25 40.93,7.82 40.93,45.2 0,13.4 -6.8,20.22 -13.72,27.18 -10.36,10.43 -20.09,10.29 -27.21,13.71zm-29.08 126.97c21.77,0 29.17,-7.5 29.08,-30.13 -0.07,-17.93 0,-35.87 0,-53.8 1.2,1.38 0.5,0.35 1.79,2.52 10.1,17.08 12.7,23.93 26.99,42.98 5.85,7.8 18.38,27.09 23.68,32.29 8.93,8.78 25.16,7.53 33.89,0.95 5.23,-3.95 7.32,-6.41 8.77,-12.87 2.29,-10.16 -7.25,-21 -12.8,-28.66 -6.31,-8.71 -11.89,-16.68 -17.69,-25.37 -3.74,-5.6 -14.61,-21.32 -16.16,-27.98 9.91,-2.31 24.33,-16.51 30.82,-26.24 22.75,-34.13 15.91,-81.94 -15.57,-107.36 -25.42,-20.53 -56.14,-21.33 -90.11,-21.36l-1.62 0c-11.09,0 -20.54,6.11 -23.78,13.91l0.09 187.32c0,19.81 -3.82,38.12 8.31,48.73 2.9,2.54 9.25,5.07 14.31,5.07z"/>
    <path class="fil8" d="M740.7 912.67c0,-17.18 0.36,-29.35 6.03,-45.62 12.26,-35.15 56.4,-30.24 71.53,57.45 2.44,14.18 3.76,42.3 1.4,56.3 -8.17,48.61 -43.06,33.45 -53.75,19.66 -1.65,-2.12 -2.54,-2.99 -3.84,-4.77 -1.53,-2.07 -2.07,-3.71 -3.52,-6.16 -10.61,-17.84 -17.85,-52.88 -17.85,-76.86zm-49.55 -6.46c0,8 0.92,22.2 1.96,29.25 1.42,9.62 2.34,18.18 4.5,26.71 10.38,40.93 27.09,74.73 69.32,88.93 27,9.08 56.11,4.28 76.93,-13.85 26.74,-23.27 26.09,-53.53 26.09,-86.92 0,-16.37 -3.79,-40.74 -7.66,-53.68 -10.26,-34.19 -10.27,-35.78 -30.04,-61.46 -2.56,-3.33 -4.2,-4.97 -7.54,-7.54 -14.88,-11.43 -29.12,-22.59 -56.01,-22.59 -45.24,0 -73.3,37.52 -76.42,79.68l-1.13 21.47z"/>
    <path class="fil8" d="M1228.63 918.05c0,27.45 17.83,51.94 30.3,67.65 13.48,16.97 38.64,40.07 38.64,61.47 0,23.3 -25.9,15.16 -36.92,4.61 -10.66,-10.21 -12.02,-34.45 -39.62,-30.57 -7.33,1.03 -8.45,1.7 -12.18,6.2 -13.11,15.82 4.49,35.98 14.84,48.38 10.92,13.06 41.03,28.42 66.34,28.42 61.38,0 66.39,-58.78 43.97,-95.58 -6.38,-10.48 -12.64,-18.91 -20.51,-27.93 -3.82,-4.38 -6.93,-8.53 -10.81,-12.88 -4.11,-4.61 -7.15,-8.75 -10.96,-13.8 -7.89,-10.46 -22.61,-35.16 -9.03,-48.69 10.41,-10.38 36.81,-5.43 45.85,6.53 4.16,5.5 0.67,9.49 4.76,22.15 4.54,14.06 36.79,23.92 46.06,-2.1 3.42,-9.61 -3.59,-34.33 -14.72,-45.36 -4.96,-4.91 -7.35,-7.71 -13.19,-11.56 -46.36,-30.55 -122.82,-22.76 -122.82,43.06z"/>
    <path class="fil8" d="M1055.22 1026.73c0,21.57 18.02,22.04 41.2,26.63l40.03 8.43c11.52,2.25 24.26,6.5 32.86,-3.94 2.43,-2.96 2.2,-1.79 3.79,-5.89 3.97,-10.23 -0.32,-20.87 -8.04,-25.21 -5.23,-2.93 -58.33,-14.48 -65.68,-15.09 0.87,-10.44 9.91,-48.86 10.77,-59.18 23.39,1.94 63.68,21.29 77.88,5.7 7.84,-8.61 6.9,-24.98 -4.66,-31.5 -6.14,-3.46 -34.99,-8.87 -43.34,-10.51 -7.15,-1.41 -15.41,-4 -22.34,-4.58 2.39,-10.23 3.95,-20.63 6.01,-31.66 1.09,-5.86 1.87,-9.37 2.9,-15.39 0.76,-4.42 2.52,-11.42 2.94,-16.44l61.4 12.92c23.39,0 30.91,-31.68 7.11,-40.47 -9.98,-3.69 -77.81,-17.64 -87.9,-17.64 -3.17,0 -9.72,3.98 -11.52,5.7 -6.86,6.53 -9.5,29.91 -11.24,40.43 -6.12,36.87 -15.19,79.93 -22.02,117.89 -1.87,10.36 -3.32,18.84 -5.4,29.04 -1.84,9.05 -4.75,21.25 -4.75,30.76z"/>
    <path class="fil8" d="M510.19 960.01c0,42.69 15.63,80.57 44.96,110.05 52.66,52.91 154.31,7.75 154.31,-23.96 0,-15.04 -26.37,-21.96 -50.33,-4.01 -10.18,7.62 -10.05,8.31 -22.91,8.31 -41.59,0 -75.82,-86.17 -60.14,-121.41 3.13,-7.05 11.28,-17.34 20.37,-18.39 12.96,-1.5 27.4,2.25 43.84,-14.31 7.32,-7.37 11.06,-20.24 -0.27,-26.16 -5.64,-2.95 -20.66,-3.39 -25.87,-3.07 -12.56,0.77 -25.67,3.37 -36.89,8.23 -16.4,7.12 -23.57,10.79 -37.67,22.63 -15.87,13.33 -29.4,38.95 -29.4,62.09z"/>
    <path class="fil8" d="M995.29 1152.73c-14.2,-9.5 -12.49,-56.22 0,-64.57 11.66,8.54 14.22,55.05 0,64.57zm-45.24 -34.44c0,22.2 3.05,40.38 21.71,51.48 19.62,11.67 60.05,7.72 66.49,-29 0.78,-4.43 2.64,-17.84 2.16,-22.29 -2.32,-21.42 -5.74,-39.09 -24.28,-48.98 -12.03,-6.42 -27.91,-6.42 -39.9,-0.38 -5.42,2.74 -10.48,5.68 -14.35,10.42 -7.19,8.84 -11.83,22.64 -11.83,38.75z"/>
    <path class="fil8" d="M891.88 1154.88l0 -66.72c18.76,4.37 24.26,36.69 14.4,54.2 -2.64,4.67 -8.86,11.23 -14.4,12.52zm-31.23 -80.71c0.11,4.87 1.07,4.28 1.07,9.69l0 80.7c0,7.08 -3.18,12.91 16.16,12.91 48.77,0 75.85,-42.8 58.9,-79.28 -1.61,-3.47 -2.5,-5.38 -4.77,-8.15 -2.3,-2.81 -3.76,-5.2 -6.55,-7.44 -17.14,-13.77 -30.62,-14.88 -51.89,-14.88 -6.66,0 -9.71,3.07 -12.92,6.45z"/>
    <path class="fil8" d="M1069.22 1354.93c-1.61,-1.85 -1.29,-1.4 -2.33,-4.13 -0.61,-1.58 -1.25,-4.03 -1.84,-5.69 -1.29,-3.61 -2.33,-6.26 -3.83,-10.17l-23.7 -63.48c-3.85,-9.66 -12.97,-30.32 -19.21,-38.92 -11.63,-16.03 -22.01,-32.96 -45.33,-23.25 -12.44,5.17 -6.86,13.8 -6.59,14.86l0.44 204.01c0,6.38 0.92,7.95 4.45,10.62 9.5,7.15 27.2,5.81 32.4,-2.98 3.58,-6.05 1.99,-50.53 1.99,-59.35 0,-27.26 0,-54.52 0,-81.78 0.81,1.16 0.21,0.14 1.17,2.06l6.77 17.99c11.79,34.93 25.55,69.47 41.95,102.27 8.91,17.81 20.31,25.57 30.3,27.25l8.38 0c8.65,-1.54 14.83,-7.8 14.83,-15.07l0 -208.75c0,-18.58 -29.41,-18.74 -37.25,-8.16 -4.41,5.97 -2.6,50.85 -2.6,59.81 0,27.62 0,55.24 0,82.86z"/>
    <path class="fil8" d="M637.29 1219.34l0 209.83c0,17.99 28.05,18.04 35.89,8.96 4.09,-4.73 2.89,-12.54 2.89,-20.79l0 -140.97c10.91,12.55 21.94,52.19 23.67,54.91 6.32,9.95 30.39,9.67 35.93,-1.82 3.15,-6.54 14.63,-46.25 20.46,-55.96 1.27,-2.1 0.63,-1.16 1.8,-2.51 0,10.29 -1.6,158.48 1.18,164.54 2.24,4.92 8.4,8.01 15.28,8.71l5.95 0c4.84,-0.49 9.59,-2.19 13.21,-5.3 3.23,-2.77 4.23,-7.16 4.23,-12.99l0 -201.23c0,-21.82 -25.86,-20.89 -36.8,-12.01 -3.76,3.05 -7.42,6.12 -10.86,9.59 -7.03,7.06 -12.64,14.05 -18.48,22.43 -3.84,5.51 -13.14,20.9 -14.64,27.34 -0.67,-0.77 -0.35,-0.24 -1.48,-1.75 -5.05,-6.78 -13.43,-21.71 -23.74,-35.46 -4.63,-6.18 -9.36,-11.03 -14.3,-16.93 -2.97,-3.54 -3.11,-4.96 -7.38,-7.68 -13.46,-8.57 -32.81,-1.26 -32.81,9.09z"/>
    <path class="fil8" d="M1130.62 1222.57l0 206.6c0,8.89 7.64,13.92 16.13,15.07l7.6 0c8.05,-1.1 15.04,-5.76 15.04,-13.99l0 -89.31 59.24 0 0 86.08c0,11.59 7.35,16.27 15.4,17.22l6.67 0c4.77,-0.52 9.14,-2.08 11.65,-3.98 3.7,-2.82 5.06,-3.95 5.06,-10.01l0 -208.75c0,-19.15 -38.78,-19.51 -38.78,1.07l0 91.47 -59.24 0 0 -92.54c0,-6.31 -1.35,-7.01 -5.05,-10.02 -8.95,-7.28 -33.72,-6.22 -33.72,11.09z"/>
    <path class="fil8" d="M1355.73 1298.97l14.01 76.4 -29.08 0 14.43 -74.89c0.08,-0.21 0.25,-0.59 0.32,-0.76 0.06,-0.17 0.18,-0.52 0.32,-0.75zm-50.62 145.27l0.28 0c5.87,-0.04 9.2,-1.35 13.06,-3.89 4.29,-2.83 4.99,-6.26 6.73,-11.57 2,-6.16 7.81,-22.18 7.93,-27.58l40.94 0c7.39,31.69 -0.75,43.04 30.16,43.04 4.88,0 14,-5.29 14,-9.69 0,-16.23 -28.79,-167.71 -32.96,-184.43 -2.55,-10.24 -4.85,-19.01 -8.72,-27.88 -8.03,-18.45 -35.91,-24.42 -46.23,1.83 -2.72,6.92 -18.31,95.95 -19.7,102.98 -5.74,28.91 -11.5,55.93 -19.37,82.88 -4.17,14.32 -9.91,22.71 -1.65,29.37 3.75,3.03 9.18,4.94 15.53,4.94z"/>
    <path class="fil8" d="M557.58 1300.05c0,8.55 12.93,65.74 12.93,75.32l-29.08 0 13.19 -66.45c0.79,-4.32 -0.16,-6.59 2.96,-8.87zm47.73 144.19l-7.67 0c-4.69,-0.58 -9.25,-2.21 -12.59,-4.84 -4,-3.14 -4.09,-5.21 -5.02,-11.12 -1.13,-7.12 -4.13,-19.81 -4.13,-27.08 -51.59,0 -38.95,-4.12 -44.83,13.33 -5.31,15.79 -5.33,29.71 -25.19,29.71 -8.47,0 -19.38,-5 -19.38,-12.91l8.24 -29.43c2.92,-10.05 4.84,-18.68 7.48,-29.12 6.35,-25.09 25.47,-141.12 30.91,-152.04 7.51,-15.05 23.11,-18.89 36.96,-8.51 17.17,12.87 26.49,89.01 30.3,108.54l17.83 101.65c0.95,5.53 2.49,10.88 -0.98,15.76 -2.42,3.41 -6.89,5.41 -11.93,6.06z"/>
    <path class="fil8" d="M883.95 1298.97c0.15,0.23 0.29,0.35 0.33,0.75 0.04,0.4 0.25,0.59 0.31,0.77 2.76,8.42 13.37,68.92 13.37,74.88l-29.08 0c1.72,-7.38 14.91,-69.21 15.07,-76.4zm47.13 145.27l-6.57 0c-7.7,-0.86 -14.96,-4.99 -16.75,-15.17 -0.88,-4.99 -1.47,-9.09 -2.26,-13.88 -0.7,-4.17 -2.06,-9.76 -2.16,-13.99l-40.93 0c-2.29,9.82 -5.57,19.2 -8.47,28.12 -3.36,10.36 -7.91,14.92 -21.69,14.92 -5.19,0 -12.08,-2.93 -14.78,-5.68 -7.35,-7.49 2.67,-26.48 7.67,-46.62 2.78,-11.23 5.75,-22.01 7.92,-32.98 3.35,-16.89 24.17,-130.01 26.53,-135.98 6.93,-17.58 25.62,-21.08 38.08,-10.88 14.83,12.12 20.78,56.95 24.26,74.76l23.88 135.4c1.05,6.16 2.79,11.74 -0.7,16.35 -1.92,2.53 -7.62,4.97 -14.03,5.63z"/>
    <path class="fil8" d="M1365.43 1173.07c-3.03,-0.8 -26.42,-20.01 -51.26,-2.78 -11.4,7.91 -22.61,29.05 4.74,30.98 7.94,0.56 15.35,-1.43 19.59,-7.75 17.27,9.13 39.65,13.09 56.18,-1.99 4.88,-4.45 8.45,-11.16 8.45,-18.46 0,-6.53 -15.71,-15.13 -30.53,-7.9 -3.42,1.67 -6.19,4.22 -7.17,7.9z"/>
    <rect class="fil8" x="689.16" y="1108.39" width="131.7" height="25.33" rx="11.73" ry="12.66"/>
    <rect class="fil8" x="1070.09" y="1108.39" width="131.7" height="25.33" rx="11.73" ry="12.66"/>
   </g>
  </g>
 </g>
</svg>
