<?xml version="1.0" encoding="UTF-8"?>
<!DOCTYPE svg PUBLIC "-//W3C//DTD SVG 1.1//EN" "http://www.w3.org/Graphics/SVG/1.1/DTD/svg11.dtd">
<!-- Creator: CorelDRAW -->
<svg xmlns="http://www.w3.org/2000/svg" xml:space="preserve" width="12.617mm" height="12.617mm" version="1.1" style="shape-rendering:geometricPrecision; text-rendering:geometricPrecision; image-rendering:optimizeQuality; fill-rule:evenodd; clip-rule:evenodd"
viewBox="0 0 1261.7 1261.7"
 xmlns:xlink="http://www.w3.org/1999/xlink"
 xmlns:xodm="http://www.corel.com/coreldraw/odm/2003">
 <defs>
  <style type="text/css">
   <![CDATA[
    .fil0 {fill:#FEFEFE}
   ]]>
  </style>
 </defs>
 <g id="Camada_x0020_1">
  <metadata id="CorelCorpID_0Corel-Layer"/>
  <path class="fil0" d="M626.7 4.17c348.4,0 630.83,282.43 630.83,630.83 0,348.4 -282.43,630.83 -630.83,630.83 -348.4,0 -630.83,-282.43 -630.83,-630.83 0,-348.4 282.43,-630.83 630.83,-630.83zm-5.38 1003.82l9.16 0c32.3,-18.47 103.94,-16.91 145.98,-17.18 174.43,-1.17 156.03,60.32 156.03,-124.07l-10.73 -3.81c-44.7,-13.66 -79.71,-35.28 -77.42,-92.54 3.29,-82.3 83.97,-74.53 88.15,-93.46 10.49,-47.46 -22.92,-51 -90.73,-60.76 -70.66,-10.18 -132.16,-2.64 -197.97,16.62 -40.35,11.8 -86.14,-30.32 -189.58,-20.33 -35.32,1.21 -61.12,5.93 -95.05,13.64 -44.1,10.02 -39.75,12.24 -39.95,58.33 50.65,11.13 89.29,32.98 89.27,89.74 -0.02,57.02 -37.54,79.74 -89.06,90.19 -0.4,34.63 -6.6,110.39 7.44,133.84 26.15,5.62 237.42,-25.54 294.46,9.79zm-129.71 -484.28c35.42,37.04 64.94,68.72 134.77,68.76 63.65,0.06 114.05,-37.52 137.45,-73.94 49.09,-76.43 29.89,-167.51 -38.59,-222.95 -25.13,-20.36 -46.4,-19.81 -74.06,-33.57l-43.33 0c-26.37,12.21 -47.53,9.2 -76.01,29.31 -18.58,13.1 -40.06,36.34 -51.97,57.89 -33.31,60.36 -20.4,122.19 11.74,174.5zm425.62 195.83c-76.98,25.08 -39.38,131.79 34.33,110.52 25.76,-7.42 45.63,-37.13 37.93,-70.58 -6.78,-29.49 -39.34,-50.67 -72.26,-39.94zm-613.72 -0.25c-71.32,22.45 -44.01,133.17 34.49,110.77 66,-18.83 41.17,-134.57 -34.49,-110.77z"/>
 </g>
</svg>
