<?xml version="1.0" encoding="UTF-8"?>
<!DOCTYPE svg PUBLIC "-//W3C//DTD SVG 1.1//EN" "http://www.w3.org/Graphics/SVG/1.1/DTD/svg11.dtd">
<!-- Creator: CorelDRAW -->
<svg xmlns="http://www.w3.org/2000/svg" xml:space="preserve" width="13.5mm" height="13.5mm" version="1.1" style="shape-rendering:geometricPrecision; text-rendering:geometricPrecision; image-rendering:optimizeQuality; fill-rule:evenodd; clip-rule:evenodd"
viewBox="0 0 1350 1350"
 xmlns:xlink="http://www.w3.org/1999/xlink"
 xmlns:xodm="http://www.corel.com/coreldraw/odm/2003">
 <defs>
  <style type="text/css">
   <![CDATA[
    .str0 {stroke:#373435;stroke-width:20;stroke-miterlimit:22.9256}
    .fil2 {fill:none}
    .fil0 {fill:#FEFEFE}
    .fil1 {fill:#201E1E}
   ]]>
  </style>
   <clipPath id="id0">
    <path d="M672.67 22.12c361.86,0 655.21,293.35 655.21,655.21 0,361.86 -293.35,655.21 -655.21,655.21 -361.86,0 -655.21,-293.35 -655.21,-655.21 0,-361.86 293.35,-655.21 655.21,-655.21z"/>
   </clipPath>
 </defs>
 <g id="Camada_x0020_1">
  <metadata id="CorelCorpID_0Corel-Layer"/>
  <path class="fil0" d="M672.67 22.12c361.86,0 655.21,293.35 655.21,655.21 0,361.86 -293.35,655.21 -655.21,655.21 -361.86,0 -655.21,-293.35 -655.21,-655.21 0,-361.86 293.35,-655.21 655.21,-655.21z"/>
  <g style="clip-path:url(#id0)">
   <g id="_1665255351376">
    <path id="_1" class="fil1" d="M641.14 209.16c-364.22,49.03 -285.75,592.24 75.89,539.71 345.84,-50.22 276.76,-587.19 -75.89,-539.71z"/>
    <ellipse class="fil1 str0" cx="690.38" cy="1809" rx="661.36" ry="1024.03"/>
   </g>
  </g>
  <path class="fil2 str0" d="M672.67 22.12c361.86,0 655.21,293.35 655.21,655.21 0,361.86 -293.35,655.21 -655.21,655.21 -361.86,0 -655.21,-293.35 -655.21,-655.21 0,-361.86 293.35,-655.21 655.21,-655.21z"/>
 </g>
</svg>
